<?xml version="1.0" encoding="utf-8" standalone="no"?>
<!DOCTYPE svg PUBLIC "-//W3C//DTD SVG 1.1//EN"
  "http://www.w3.org/Graphics/SVG/1.1/DTD/svg11.dtd">
<svg xmlns:xlink="http://www.w3.org/1999/xlink" width="720pt" height="316.8pt" viewBox="0 0 720 316.8" xmlns="http://www.w3.org/2000/svg" version="1.1">
 <metadata>
  <rdf:RDF xmlns:dc="http://purl.org/dc/elements/1.1/" xmlns:cc="http://creativecommons.org/ns#" xmlns:rdf="http://www.w3.org/1999/02/22-rdf-syntax-ns#">
   <cc:Work>
    <dc:type rdf:resource="http://purl.org/dc/dcmitype/StillImage"/>
    <dc:date>2026-09-02T02:49:33.238370</dc:date>
    <dc:format>image/svg+xml</dc:format>
    <dc:creator>
     <cc:Agent>
      <dc:title>Matplotlib v3.10.9, https://matplotlib.org/</dc:title>
     </cc:Agent>
    </dc:creator>
   </cc:Work>
  </rdf:RDF>
 </metadata>
 <defs>
  <style type="text/css">*{stroke-linejoin: round; stroke-linecap: butt}</style>
 </defs>
 <g id="figure_1">
  <g id="patch_1">
   <path d="M 0 316.8 
L 720 316.8 
L 720 0 
L 0 0 
z
" style="fill: #fcfcfb"/>
  </g>
  <g id="axes_1">
   <g id="patch_2">
    <path d="M 71.022984 279.028 
L 412.64858 279.028 
L 412.64858 44.6925 
L 71.022984 44.6925 
z
" style="fill: #fcfcfb"/>
   </g>
   <g id="matplotlib.axis_1">
    <g id="xtick_1">
     <g id="line2d_1">
      <path d="M 71.022984 279.028 
L 71.022984 44.6925 
" clip-path="url(#p43de144b40)" style="fill: none; stroke: #e1e0d9; stroke-width: 0.8; stroke-linecap: square"/>
     </g>
     <g id="line2d_2"/>
     <g id="text_1">
      <!-- 0 -->
      <g style="fill: #898781" transform="translate(68.247984 290.487375) scale(0.1 -0.1)">
       <defs>
        <path id="NotoSansCJKjp-Regular-30" d="M 1779 -83 
C 2669 -83 3238 723 3238 2362 
C 3238 3987 2669 4774 1779 4774 
C 883 4774 320 3987 320 2362 
C 320 723 883 -83 1779 -83 
z
M 1779 390 
C 1248 390 883 986 883 2362 
C 883 3731 1248 4314 1779 4314 
C 2310 4314 2675 3731 2675 2362 
C 2675 986 2310 390 1779 390 
z
" transform="scale(0.015625)"/>
       </defs>
       <use xlink:href="#NotoSansCJKjp-Regular-30"/>
      </g>
     </g>
    </g>
    <g id="xtick_2">
     <g id="line2d_3">
      <path d="M 156.429383 279.028 
L 156.429383 44.6925 
" clip-path="url(#p43de144b40)" style="fill: none; stroke: #e1e0d9; stroke-width: 0.8; stroke-linecap: square"/>
     </g>
     <g id="line2d_4"/>
     <g id="text_2">
      <!-- 20 -->
      <g style="fill: #898781" transform="translate(150.879383 290.487375) scale(0.1 -0.1)">
       <defs>
        <path id="NotoSansCJKjp-Regular-32" d="M 282 0 
L 3232 0 
L 3232 506 
L 1933 506 
C 1696 506 1408 480 1165 461 
C 2266 1504 3008 2458 3008 3398 
C 3008 4230 2477 4774 1638 4774 
C 1043 4774 634 4506 256 4090 
L 595 3757 
C 858 4070 1184 4301 1568 4301 
C 2150 4301 2432 3910 2432 3373 
C 2432 2566 1754 1632 282 346 
L 282 0 
z
" transform="scale(0.015625)"/>
       </defs>
       <use xlink:href="#NotoSansCJKjp-Regular-32"/>
       <use xlink:href="#NotoSansCJKjp-Regular-30" transform="translate(55.499985 0)"/>
      </g>
     </g>
    </g>
    <g id="xtick_3">
     <g id="line2d_5">
      <path d="M 241.835782 279.028 
L 241.835782 44.6925 
" clip-path="url(#p43de144b40)" style="fill: none; stroke: #e1e0d9; stroke-width: 0.8; stroke-linecap: square"/>
     </g>
     <g id="line2d_6"/>
     <g id="text_3">
      <!-- 40 -->
      <g style="fill: #898781" transform="translate(236.285782 290.487375) scale(0.1 -0.1)">
       <defs>
        <path id="NotoSansCJKjp-Regular-34" d="M 2176 0 
L 2726 0 
L 2726 1293 
L 3354 1293 
L 3354 1760 
L 2726 1760 
L 2726 4691 
L 2080 4691 
L 128 1677 
L 128 1293 
L 2176 1293 
L 2176 0 
z
M 2176 1760 
L 736 1760 
L 1805 3360 
C 1939 3590 2067 3827 2182 4051 
L 2208 4051 
C 2195 3814 2176 3430 2176 3200 
L 2176 1760 
z
" transform="scale(0.015625)"/>
       </defs>
       <use xlink:href="#NotoSansCJKjp-Regular-34"/>
       <use xlink:href="#NotoSansCJKjp-Regular-30" transform="translate(55.499985 0)"/>
      </g>
     </g>
    </g>
    <g id="xtick_4">
     <g id="line2d_7">
      <path d="M 327.242181 279.028 
L 327.242181 44.6925 
" clip-path="url(#p43de144b40)" style="fill: none; stroke: #e1e0d9; stroke-width: 0.8; stroke-linecap: square"/>
     </g>
     <g id="line2d_8"/>
     <g id="text_4">
      <!-- 60 -->
      <g style="fill: #898781" transform="translate(321.692181 290.487375) scale(0.1 -0.1)">
       <defs>
        <path id="NotoSansCJKjp-Regular-36" d="M 1926 -83 
C 2656 -83 3277 531 3277 1440 
C 3277 2426 2765 2912 1971 2912 
C 1606 2912 1197 2701 909 2349 
C 934 3802 1466 4294 2118 4294 
C 2400 4294 2682 4154 2861 3936 
L 3194 4294 
C 2931 4576 2579 4774 2093 4774 
C 1184 4774 358 4077 358 2240 
C 358 691 1030 -83 1926 -83 
z
M 922 1882 
C 1229 2317 1587 2477 1875 2477 
C 2445 2477 2720 2074 2720 1440 
C 2720 800 2374 378 1926 378 
C 1338 378 986 909 922 1882 
z
" transform="scale(0.015625)"/>
       </defs>
       <use xlink:href="#NotoSansCJKjp-Regular-36"/>
       <use xlink:href="#NotoSansCJKjp-Regular-30" transform="translate(55.499985 0)"/>
      </g>
     </g>
    </g>
    <g id="xtick_5">
     <g id="line2d_9">
      <path d="M 412.64858 279.028 
L 412.64858 44.6925 
" clip-path="url(#p43de144b40)" style="fill: none; stroke: #e1e0d9; stroke-width: 0.8; stroke-linecap: square"/>
     </g>
     <g id="line2d_10"/>
     <g id="text_5">
      <!-- 80 -->
      <g style="fill: #898781" transform="translate(407.09858 290.487375) scale(0.1 -0.1)">
       <defs>
        <path id="NotoSansCJKjp-Regular-38" d="M 1792 -83 
C 2669 -83 3258 448 3258 1126 
C 3258 1773 2880 2125 2470 2362 
L 2470 2394 
C 2746 2611 3091 3034 3091 3526 
C 3091 4250 2605 4762 1805 4762 
C 1075 4762 518 4282 518 3571 
C 518 3078 813 2726 1152 2490 
L 1152 2464 
C 723 2234 294 1792 294 1165 
C 294 442 922 -83 1792 -83 
z
M 2112 2547 
C 1555 2765 1050 3014 1050 3571 
C 1050 4026 1363 4326 1798 4326 
C 2298 4326 2592 3962 2592 3494 
C 2592 3149 2426 2829 2112 2547 
z
M 1798 352 
C 1235 352 813 717 813 1216 
C 813 1664 1082 2035 1459 2278 
C 2125 2010 2701 1779 2701 1146 
C 2701 678 2342 352 1798 352 
z
" transform="scale(0.015625)"/>
       </defs>
       <use xlink:href="#NotoSansCJKjp-Regular-38"/>
       <use xlink:href="#NotoSansCJKjp-Regular-30" transform="translate(55.499985 0)"/>
      </g>
     </g>
    </g>
   </g>
   <g id="matplotlib.axis_2"/>
   <g id="patch_3">
    <path d="M 71.022984 279.028 
L 412.64858 279.028 
" style="fill: none; stroke: #c3c2b7; stroke-width: 0.8; stroke-linejoin: miter; stroke-linecap: square"/>
   </g>
   <g id="patch_4">
    <path d="M 72.30408 106.937867 
L 343.042365 106.937867 
L 343.042365 70.322945 
L 72.30408 70.322945 
z
" clip-path="url(#p43de144b40)" style="fill: #2a78d6"/>
   </g>
   <g id="patch_5">
    <path d="M 345.604557 106.937867 
L 411.367484 106.937867 
L 411.367484 70.322945 
L 345.604557 70.322945 
z
" clip-path="url(#p43de144b40)" style="fill: #86b6ef"/>
   </g>
   <g id="text_6">
    <!-- 64 -->
    <g style="fill: #ffffff" transform="translate(201.403223 91.78775) scale(0.11 -0.11)">
     <defs>
      <path id="NotoSansCJKjp-Medium-36" d="M 1971 -90 
C 2733 -90 3379 525 3379 1466 
C 3379 2464 2842 2944 2048 2944 
C 1709 2944 1299 2739 1024 2400 
C 1056 3738 1555 4198 2157 4198 
C 2432 4198 2720 4051 2893 3846 
L 3296 4294 
C 3027 4576 2643 4800 2118 4800 
C 1190 4800 339 4070 339 2266 
C 339 666 1069 -90 1971 -90 
z
M 1037 1856 
C 1318 2259 1645 2406 1920 2406 
C 2413 2406 2688 2067 2688 1466 
C 2688 851 2368 480 1958 480 
C 1453 480 1114 922 1037 1856 
z
" transform="scale(0.015625)"/>
      <path id="NotoSansCJKjp-Medium-34" d="M 2170 0 
L 2861 0 
L 2861 1267 
L 3456 1267 
L 3456 1843 
L 2861 1843 
L 2861 4717 
L 2003 4717 
L 128 1760 
L 128 1267 
L 2170 1267 
L 2170 0 
z
M 2170 1843 
L 877 1843 
L 1798 3258 
C 1933 3501 2061 3744 2176 3987 
L 2202 3987 
C 2189 3725 2170 3328 2170 3072 
L 2170 1843 
z
" transform="scale(0.015625)"/>
     </defs>
     <use xlink:href="#NotoSansCJKjp-Medium-36"/>
     <use xlink:href="#NotoSansCJKjp-Medium-34" transform="translate(56.999985 0)"/>
    </g>
   </g>
   <g id="text_7">
    <!-- 16 -->
    <g style="fill: #0b0b0b" transform="translate(372.21602 91.78775) scale(0.11 -0.11)">
     <defs>
      <path id="NotoSansCJKjp-Medium-31" d="M 544 0 
L 3238 0 
L 3238 608 
L 2323 608 
L 2323 4717 
L 1766 4717 
C 1491 4544 1178 4429 736 4352 
L 736 3885 
L 1581 3885 
L 1581 608 
L 544 608 
L 544 0 
z
" transform="scale(0.015625)"/>
     </defs>
     <use xlink:href="#NotoSansCJKjp-Medium-31"/>
     <use xlink:href="#NotoSansCJKjp-Medium-36" transform="translate(56.999985 0)"/>
    </g>
   </g>
   <g id="text_8">
    <!-- 압박 없음 -->
    <g style="fill: #52514e" transform="translate(21.489688 91.6065) scale(0.105 -0.105)">
     <defs>
      <path id="NotoSansCJKjp-Regular-c555" d="M 1933 4998 
C 1062 4998 429 4454 429 3667 
C 429 2867 1062 2323 1933 2323 
C 2810 2323 3437 2867 3437 3667 
C 3437 4454 2810 4998 1933 4998 
z
M 1933 4557 
C 2509 4557 2925 4192 2925 3667 
C 2925 3136 2509 2771 1933 2771 
C 1363 2771 947 3136 947 3667 
C 947 4192 1363 4557 1933 4557 
z
M 1165 1875 
L 1165 -422 
L 4813 -422 
L 4813 1875 
L 4282 1875 
L 4282 1165 
L 1690 1165 
L 1690 1875 
L 1165 1875 
z
M 1690 742 
L 4282 742 
L 4282 13 
L 1690 13 
L 1690 742 
z
M 4282 5293 
L 4282 2157 
L 4813 2157 
L 4813 3526 
L 5664 3526 
L 5664 3968 
L 4813 3968 
L 4813 5293 
L 4282 5293 
z
" transform="scale(0.015625)"/>
      <path id="NotoSansCJKjp-Regular-bc15" d="M 1050 1491 
L 1050 1056 
L 4282 1056 
L 4282 -499 
L 4813 -499 
L 4813 1491 
L 1050 1491 
z
M 557 4928 
L 557 2189 
L 3238 2189 
L 3238 4928 
L 2714 4928 
L 2714 4026 
L 1082 4026 
L 1082 4928 
L 557 4928 
z
M 1082 3603 
L 2714 3603 
L 2714 2618 
L 1082 2618 
L 1082 3603 
z
M 4282 5293 
L 4282 1798 
L 4813 1798 
L 4813 3347 
L 5664 3347 
L 5664 3789 
L 4813 3789 
L 4813 5293 
L 4282 5293 
z
" transform="scale(0.015625)"/>
      <path id="NotoSansCJKjp-Regular-20" transform="scale(0.015625)"/>
      <path id="NotoSansCJKjp-Regular-c5c6" d="M 979 1894 
L 979 -422 
L 2982 -422 
L 2982 1894 
L 2490 1894 
L 2490 1178 
L 1478 1178 
L 1478 1894 
L 979 1894 
z
M 1478 774 
L 2490 774 
L 2490 -6 
L 1478 -6 
L 1478 774 
z
M 1901 4595 
C 2470 4595 2880 4230 2880 3706 
C 2880 3181 2470 2810 1901 2810 
C 1325 2810 915 3181 915 3706 
C 915 4230 1325 4595 1901 4595 
z
M 4102 1933 
L 4102 1446 
C 4102 858 3744 224 3053 -64 
L 3322 -467 
C 3827 -250 4179 154 4365 621 
C 4538 147 4883 -256 5408 -467 
L 5683 -64 
C 4986 198 4627 832 4627 1446 
L 4627 1933 
L 4102 1933 
z
M 4550 5293 
L 4550 3936 
L 3366 3936 
C 3258 4595 2669 5037 1901 5037 
C 1030 5037 410 4493 410 3706 
C 410 2912 1030 2368 1901 2368 
C 2682 2368 3270 2816 3373 3494 
L 4550 3494 
L 4550 2227 
L 5082 2227 
L 5082 5293 
L 4550 5293 
z
" transform="scale(0.015625)"/>
      <path id="NotoSansCJKjp-Regular-c74c" d="M 2931 5165 
C 1683 5165 896 4755 896 4064 
C 896 3379 1683 2976 2931 2976 
C 4186 2976 4966 3379 4966 4064 
C 4966 4755 4186 5165 2931 5165 
z
M 2931 4742 
C 3846 4742 4422 4493 4422 4064 
C 4422 3648 3846 3398 2931 3398 
C 2016 3398 1440 3648 1440 4064 
C 1440 4493 2016 4742 2931 4742 
z
M 960 1485 
L 960 -422 
L 4909 -422 
L 4909 1485 
L 960 1485 
z
M 4390 1056 
L 4390 13 
L 1478 13 
L 1478 1056 
L 4390 1056 
z
M 320 2483 
L 320 2048 
L 5549 2048 
L 5549 2483 
L 320 2483 
z
" transform="scale(0.015625)"/>
     </defs>
     <use xlink:href="#NotoSansCJKjp-Regular-c555"/>
     <use xlink:href="#NotoSansCJKjp-Regular-bc15" transform="translate(91.999985 0)"/>
     <use xlink:href="#NotoSansCJKjp-Regular-20" transform="translate(183.999969 0)"/>
     <use xlink:href="#NotoSansCJKjp-Regular-c5c6" transform="translate(206.399963 0)"/>
     <use xlink:href="#NotoSansCJKjp-Regular-c74c" transform="translate(298.399948 0)"/>
    </g>
   </g>
   <g id="patch_6">
    <path d="M 72.30408 180.167711 
L 351.583005 180.167711 
L 351.583005 143.552789 
L 72.30408 143.552789 
z
" clip-path="url(#p43de144b40)" style="fill: #2a78d6"/>
   </g>
   <g id="patch_7">
    <path d="M 354.145197 180.167711 
L 411.367484 180.167711 
L 411.367484 143.552789 
L 354.145197 143.552789 
z
" clip-path="url(#p43de144b40)" style="fill: #86b6ef"/>
   </g>
   <g id="text_9">
    <!-- 66 -->
    <g style="fill: #ffffff" transform="translate(205.673542 165.017594) scale(0.11 -0.11)">
     <use xlink:href="#NotoSansCJKjp-Medium-36"/>
     <use xlink:href="#NotoSansCJKjp-Medium-36" transform="translate(56.999985 0)"/>
    </g>
   </g>
   <g id="text_10">
    <!-- 14 -->
    <g style="fill: #0b0b0b" transform="translate(376.48634 165.017594) scale(0.11 -0.11)">
     <use xlink:href="#NotoSansCJKjp-Medium-31"/>
     <use xlink:href="#NotoSansCJKjp-Medium-34" transform="translate(56.999985 0)"/>
    </g>
   </g>
   <g id="text_11">
    <!-- 같은 편 압박 -->
    <g style="fill: #52514e" transform="translate(9.477032 164.836344) scale(0.105 -0.105)">
     <defs>
      <path id="NotoSansCJKjp-Regular-ac19" d="M 4282 5293 
L 4282 2202 
L 4813 2202 
L 4813 3507 
L 5664 3507 
L 5664 3949 
L 4813 3949 
L 4813 5293 
L 4282 5293 
z
M 582 4883 
L 582 4454 
L 2675 4454 
C 2598 3558 1792 2835 339 2522 
L 557 2086 
C 2253 2477 3264 3430 3264 4883 
L 582 4883 
z
M 1165 -13 
L 1165 -422 
L 4973 -422 
L 4973 -13 
L 1696 -13 
L 1696 576 
L 4774 576 
L 4774 973 
L 1696 973 
L 1696 1536 
L 4838 1536 
L 4838 1939 
L 1165 1939 
L 1165 -13 
z
" transform="scale(0.015625)"/>
      <path id="NotoSansCJKjp-Regular-c740" d="M 320 2246 
L 320 1818 
L 5549 1818 
L 5549 2246 
L 320 2246 
z
M 2931 5094 
C 1690 5094 896 4666 896 3942 
C 896 3219 1690 2784 2931 2784 
C 4173 2784 4966 3219 4966 3942 
C 4966 4666 4173 5094 2931 5094 
z
M 2931 4666 
C 3846 4666 4422 4390 4422 3942 
C 4422 3488 3846 3219 2931 3219 
C 2022 3219 1440 3488 1440 3942 
C 1440 4390 2022 4666 2931 4666 
z
M 992 1306 
L 992 -371 
L 4966 -371 
L 4966 64 
L 1523 64 
L 1523 1306 
L 992 1306 
z
" transform="scale(0.015625)"/>
      <path id="NotoSansCJKjp-Regular-d3b8" d="M 3584 3091 
L 3584 2650 
L 4550 2650 
L 4550 986 
L 5082 986 
L 5082 5293 
L 4550 5293 
L 4550 4192 
L 3584 4192 
L 3584 3757 
L 4550 3757 
L 4550 3091 
L 3584 3091 
z
M 397 1856 
C 1331 1856 2637 1875 3744 2048 
L 3718 2445 
C 3475 2419 3226 2394 2963 2374 
L 2963 4390 
L 3539 4390 
L 3539 4826 
L 493 4826 
L 493 4390 
L 1062 4390 
L 1062 2310 
L 333 2304 
L 397 1856 
z
M 1581 4390 
L 2451 4390 
L 2451 2342 
L 1581 2317 
L 1581 4390 
z
M 1376 1338 
L 1376 -371 
L 5235 -371 
L 5235 64 
L 1907 64 
L 1907 1338 
L 1376 1338 
z
" transform="scale(0.015625)"/>
     </defs>
     <use xlink:href="#NotoSansCJKjp-Regular-ac19"/>
     <use xlink:href="#NotoSansCJKjp-Regular-c740" transform="translate(91.999985 0)"/>
     <use xlink:href="#NotoSansCJKjp-Regular-20" transform="translate(183.999969 0)"/>
     <use xlink:href="#NotoSansCJKjp-Regular-d3b8" transform="translate(206.399963 0)"/>
     <use xlink:href="#NotoSansCJKjp-Regular-20" transform="translate(298.399948 0)"/>
     <use xlink:href="#NotoSansCJKjp-Regular-c555" transform="translate(320.799942 0)"/>
     <use xlink:href="#NotoSansCJKjp-Regular-bc15" transform="translate(412.799927 0)"/>
    </g>
   </g>
   <g id="patch_8">
    <path d="M 72.30408 253.397555 
L 253.365646 253.397555 
L 253.365646 216.782633 
L 72.30408 216.782633 
z
" clip-path="url(#p43de144b40)" style="fill: #2a78d6"/>
   </g>
   <g id="patch_9">
    <path d="M 255.927838 253.397555 
L 411.367484 253.397555 
L 411.367484 216.782633 
L 255.927838 216.782633 
z
" clip-path="url(#p43de144b40)" style="fill: #86b6ef"/>
   </g>
   <g id="text_12">
    <!-- 43 -->
    <g style="fill: #ffffff" transform="translate(156.564863 238.247437) scale(0.11 -0.11)">
     <defs>
      <path id="NotoSansCJKjp-Medium-33" d="M 1715 -90 
C 2579 -90 3290 416 3290 1267 
C 3290 1901 2861 2310 2323 2451 
L 2323 2477 
C 2822 2662 3136 3040 3136 3584 
C 3136 4358 2534 4800 1690 4800 
C 1146 4800 717 4563 339 4230 
L 723 3770 
C 998 4032 1299 4205 1664 4205 
C 2112 4205 2387 3949 2387 3533 
C 2387 3059 2080 2714 1152 2714 
L 1152 2163 
C 2214 2163 2541 1824 2541 1306 
C 2541 813 2182 525 1651 525 
C 1165 525 819 762 538 1037 
L 179 563 
C 499 211 973 -90 1715 -90 
z
" transform="scale(0.015625)"/>
     </defs>
     <use xlink:href="#NotoSansCJKjp-Medium-34"/>
     <use xlink:href="#NotoSansCJKjp-Medium-33" transform="translate(56.999985 0)"/>
    </g>
   </g>
   <g id="text_13">
    <!-- 37 -->
    <g style="fill: #0b0b0b" transform="translate(327.377661 238.247437) scale(0.11 -0.11)">
     <defs>
      <path id="NotoSansCJKjp-Medium-37" d="M 1235 0 
L 1990 0 
C 2067 1843 2246 2880 3347 4262 
L 3347 4717 
L 320 4717 
L 320 4090 
L 2528 4090 
C 1619 2816 1318 1722 1235 0 
z
" transform="scale(0.015625)"/>
     </defs>
     <use xlink:href="#NotoSansCJKjp-Medium-33"/>
     <use xlink:href="#NotoSansCJKjp-Medium-37" transform="translate(56.999985 0)"/>
    </g>
   </g>
   <g id="text_14">
    <!-- 반대편 압박 -->
    <g style="fill: #52514e" transform="translate(11.829688 238.066188) scale(0.105 -0.105)">
     <defs>
      <path id="NotoSansCJKjp-Regular-bc18" d="M 557 4870 
L 557 2010 
L 3238 2010 
L 3238 4870 
L 2714 4870 
L 2714 3904 
L 1082 3904 
L 1082 4870 
L 557 4870 
z
M 1082 3488 
L 2714 3488 
L 2714 2438 
L 1082 2438 
L 1082 3488 
z
M 4282 5286 
L 4282 1037 
L 4813 1037 
L 4813 3098 
L 5664 3098 
L 5664 3539 
L 4813 3539 
L 4813 5286 
L 4282 5286 
z
M 1210 1446 
L 1210 -371 
L 5069 -371 
L 5069 64 
L 1734 64 
L 1734 1446 
L 1210 1446 
z
" transform="scale(0.015625)"/>
      <path id="NotoSansCJKjp-Regular-b300" d="M 3411 5165 
L 3411 -198 
L 3904 -198 
L 3904 2534 
L 4723 2534 
L 4723 -499 
L 5229 -499 
L 5229 5293 
L 4723 5293 
L 4723 2970 
L 3904 2970 
L 3904 5165 
L 3411 5165 
z
M 525 4589 
L 525 928 
L 902 928 
C 1773 928 2355 954 3046 1101 
L 2995 1542 
C 2368 1408 1824 1382 1056 1376 
L 1056 4154 
L 2675 4154 
L 2675 4589 
L 525 4589 
z
" transform="scale(0.015625)"/>
     </defs>
     <use xlink:href="#NotoSansCJKjp-Regular-bc18"/>
     <use xlink:href="#NotoSansCJKjp-Regular-b300" transform="translate(91.999985 0)"/>
     <use xlink:href="#NotoSansCJKjp-Regular-d3b8" transform="translate(183.999969 0)"/>
     <use xlink:href="#NotoSansCJKjp-Regular-20" transform="translate(275.999954 0)"/>
     <use xlink:href="#NotoSansCJKjp-Regular-c555" transform="translate(298.399948 0)"/>
     <use xlink:href="#NotoSansCJKjp-Regular-bc15" transform="translate(390.399933 0)"/>
    </g>
   </g>
   <g id="text_15">
    <!-- 같은 조건 3판의 마지막 답이 모두 같은가 (칸 80개) -->
    <g style="fill: #0b0b0b" transform="translate(71.022984 32.6925) scale(0.12 -0.12)">
     <defs>
      <path id="NotoSansCJKjp-Medium-ac19" d="M 4192 5325 
L 4192 2227 
L 4858 2227 
L 4858 3482 
L 5683 3482 
L 5683 4038 
L 4858 4038 
L 4858 5325 
L 4192 5325 
z
M 557 4922 
L 557 4378 
L 2541 4378 
C 2458 3590 1747 2931 301 2656 
L 563 2118 
C 2310 2483 3296 3411 3296 4922 
L 557 4922 
z
M 1114 45 
L 1114 -454 
L 5018 -454 
L 5018 45 
L 1779 45 
L 1779 531 
L 4826 531 
L 4826 1011 
L 1779 1011 
L 1779 1478 
L 4890 1478 
L 4890 1978 
L 1114 1978 
L 1114 45 
z
" transform="scale(0.015625)"/>
      <path id="NotoSansCJKjp-Medium-c740" d="M 294 2285 
L 294 1747 
L 5581 1747 
L 5581 2285 
L 294 2285 
z
M 2938 5133 
C 1670 5133 851 4685 851 3955 
C 851 3213 1670 2765 2938 2765 
C 4198 2765 5018 3213 5018 3955 
C 5018 4685 4198 5133 2938 5133 
z
M 2938 4595 
C 3795 4595 4326 4365 4326 3955 
C 4326 3539 3795 3302 2938 3302 
C 2074 3302 1542 3539 1542 3955 
C 1542 4365 2074 4595 2938 4595 
z
M 954 1286 
L 954 -410 
L 4992 -410 
L 4992 134 
L 1626 134 
L 1626 1286 
L 954 1286 
z
" transform="scale(0.015625)"/>
      <path id="NotoSansCJKjp-Medium-20" transform="scale(0.015625)"/>
      <path id="NotoSansCJKjp-Medium-c870" d="M 2611 2099 
L 2611 736 
L 294 736 
L 294 186 
L 5594 186 
L 5594 736 
L 3277 736 
L 3277 2099 
L 2611 2099 
z
M 730 4826 
L 730 4288 
L 2586 4288 
L 2586 4275 
C 2586 3398 1664 2592 525 2406 
L 800 1869 
C 1747 2054 2566 2605 2938 3366 
C 3315 2618 4147 2080 5107 1901 
L 5376 2432 
C 4218 2605 3290 3398 3290 4275 
L 3290 4288 
L 5146 4288 
L 5146 4826 
L 730 4826 
z
" transform="scale(0.015625)"/>
      <path id="NotoSansCJKjp-Medium-ac74" d="M 3322 3565 
L 3322 3014 
L 4467 3014 
L 4467 1018 
L 5139 1018 
L 5139 5318 
L 4467 5318 
L 4467 3565 
L 3322 3565 
z
M 672 4877 
L 672 4333 
L 2630 4333 
C 2502 3373 1658 2598 371 2182 
L 653 1645 
C 2330 2189 3354 3334 3354 4877 
L 672 4877 
z
M 1382 1453 
L 1382 -410 
L 5286 -410 
L 5286 134 
L 2061 134 
L 2061 1453 
L 1382 1453 
z
" transform="scale(0.015625)"/>
      <path id="NotoSansCJKjp-Medium-d310" d="M 365 1837 
C 1350 1837 2701 1869 3853 2061 
L 3808 2554 
C 3558 2522 3302 2496 3040 2477 
L 3040 4262 
L 3571 4262 
L 3571 4806 
L 442 4806 
L 442 4262 
L 973 4262 
L 973 2400 
L 288 2394 
L 365 1837 
z
M 1619 4262 
L 2394 4262 
L 2394 2438 
L 1619 2406 
L 1619 4262 
z
M 4192 5318 
L 4192 1011 
L 4858 1011 
L 4858 3040 
L 5683 3040 
L 5683 3597 
L 4858 3597 
L 4858 5318 
L 4192 5318 
z
M 1158 1414 
L 1158 -410 
L 5101 -410 
L 5101 134 
L 1830 134 
L 1830 1414 
L 1158 1414 
z
" transform="scale(0.015625)"/>
      <path id="NotoSansCJKjp-Medium-c758" d="M 2182 4915 
C 1267 4915 595 4333 595 3507 
C 595 2682 1267 2099 2182 2099 
C 3098 2099 3770 2682 3770 3507 
C 3770 4333 3098 4915 2182 4915 
z
M 2182 4333 
C 2714 4333 3110 4013 3110 3507 
C 3110 3002 2714 2675 2182 2675 
C 1645 2675 1248 3002 1248 3507 
C 1248 4013 1645 4333 2182 4333 
z
M 4435 5325 
L 4435 -538 
L 5107 -538 
L 5107 5325 
L 4435 5325 
z
M 410 704 
C 1440 704 2842 710 4134 960 
L 4083 1453 
C 2829 1261 1370 1254 320 1254 
L 410 704 
z
" transform="scale(0.015625)"/>
      <path id="NotoSansCJKjp-Medium-b9c8" d="M 499 4755 
L 499 928 
L 3238 928 
L 3238 4755 
L 499 4755 
z
M 2579 4218 
L 2579 1459 
L 1158 1459 
L 1158 4218 
L 2579 4218 
z
M 4154 5318 
L 4154 -531 
L 4826 -531 
L 4826 2483 
L 5734 2483 
L 5734 3040 
L 4826 3040 
L 4826 5318 
L 4154 5318 
z
" transform="scale(0.015625)"/>
      <path id="NotoSansCJKjp-Medium-c9c0" d="M 4435 5318 
L 4435 -531 
L 5107 -531 
L 5107 5318 
L 4435 5318 
z
M 480 4742 
L 480 4186 
L 1779 4186 
L 1779 3629 
C 1779 2630 1178 1536 269 1114 
L 659 582 
C 1338 915 1862 1613 2125 2426 
C 2394 1664 2918 1037 3597 730 
L 3968 1261 
C 3059 1651 2458 2656 2458 3629 
L 2458 4186 
L 3757 4186 
L 3757 4742 
L 480 4742 
z
" transform="scale(0.015625)"/>
      <path id="NotoSansCJKjp-Medium-b9c9" d="M 499 4896 
L 499 2240 
L 3232 2240 
L 3232 4896 
L 499 4896 
z
M 2579 4358 
L 2579 2771 
L 1158 2771 
L 1158 4358 
L 2579 4358 
z
M 1018 1568 
L 1018 1030 
L 4192 1030 
L 4192 -531 
L 4858 -531 
L 4858 1568 
L 1018 1568 
z
M 4192 5318 
L 4192 1856 
L 4858 1856 
L 4858 3302 
L 5683 3302 
L 5683 3859 
L 4858 3859 
L 4858 5318 
L 4192 5318 
z
" transform="scale(0.015625)"/>
      <path id="NotoSansCJKjp-Medium-b2f5" d="M 1114 1894 
L 1114 -442 
L 4858 -442 
L 4858 1894 
L 4198 1894 
L 4198 1261 
L 1779 1261 
L 1779 1894 
L 1114 1894 
z
M 1779 736 
L 4198 736 
L 4198 102 
L 1779 102 
L 1779 736 
z
M 4192 5325 
L 4192 2202 
L 4858 2202 
L 4858 3450 
L 5683 3450 
L 5683 4000 
L 4858 4000 
L 4858 5325 
L 4192 5325 
z
M 538 4954 
L 538 2362 
L 1011 2362 
C 2272 2362 2950 2400 3712 2560 
L 3642 3098 
C 2938 2950 2310 2918 1210 2912 
L 1210 4416 
L 3123 4416 
L 3123 4954 
L 538 4954 
z
" transform="scale(0.015625)"/>
      <path id="NotoSansCJKjp-Medium-c774" d="M 4435 5325 
L 4435 -538 
L 5107 -538 
L 5107 5325 
L 4435 5325 
z
M 1997 4896 
C 1120 4896 486 4090 486 2835 
C 486 1568 1120 768 1997 768 
C 2867 768 3501 1568 3501 2835 
C 3501 4090 2867 4896 1997 4896 
z
M 1997 4288 
C 2509 4288 2854 3744 2854 2835 
C 2854 1920 2509 1370 1997 1370 
C 1485 1370 1133 1920 1133 2835 
C 1133 3744 1485 4288 1997 4288 
z
" transform="scale(0.015625)"/>
      <path id="NotoSansCJKjp-Medium-baa8" d="M 4320 4326 
L 4320 2586 
L 1542 2586 
L 1542 4326 
L 4320 4326 
z
M 883 4858 
L 883 2054 
L 2598 2054 
L 2598 742 
L 294 742 
L 294 192 
L 5594 192 
L 5594 742 
L 3270 742 
L 3270 2054 
L 4979 2054 
L 4979 4858 
L 883 4858 
z
" transform="scale(0.015625)"/>
      <path id="NotoSansCJKjp-Medium-b450" d="M 998 4992 
L 998 2656 
L 4954 2656 
L 4954 3194 
L 1677 3194 
L 1677 4454 
L 4877 4454 
L 4877 4992 
L 998 4992 
z
M 294 1978 
L 294 1427 
L 2592 1427 
L 2592 -512 
L 3258 -512 
L 3258 1427 
L 5594 1427 
L 5594 1978 
L 294 1978 
z
" transform="scale(0.015625)"/>
      <path id="NotoSansCJKjp-Medium-ac00" d="M 4154 5325 
L 4154 -525 
L 4826 -525 
L 4826 2458 
L 5709 2458 
L 5709 3014 
L 4826 3014 
L 4826 5325 
L 4154 5325 
z
M 582 4704 
L 582 4160 
L 2624 4160 
C 2490 2816 1715 1779 288 1050 
L 659 538 
C 2579 1498 3296 3002 3296 4704 
L 582 4704 
z
" transform="scale(0.015625)"/>
      <path id="NotoSansCJKjp-Medium-28" d="M 1517 -1274 
L 1978 -1069 
C 1427 -154 1178 928 1178 2003 
C 1178 3072 1427 4154 1978 5075 
L 1517 5280 
C 922 4307 570 3264 570 2003 
C 570 730 922 -301 1517 -1274 
z
" transform="scale(0.015625)"/>
      <path id="NotoSansCJKjp-Medium-ce78" d="M 646 4890 
L 646 4346 
L 2573 4346 
C 2554 4134 2502 3930 2432 3738 
L 352 3654 
L 454 3117 
L 2170 3251 
C 1824 2765 1242 2368 365 2080 
L 640 1549 
C 2515 2182 3277 3322 3277 4890 
L 646 4890 
z
M 4186 5318 
L 4186 992 
L 4858 992 
L 4858 3008 
L 5683 3008 
L 5683 3565 
L 4858 3565 
L 4858 5318 
L 4186 5318 
z
M 1152 1389 
L 1152 -410 
L 5088 -410 
L 5088 134 
L 1824 134 
L 1824 1389 
L 1152 1389 
z
" transform="scale(0.015625)"/>
      <path id="NotoSansCJKjp-Medium-38" d="M 1830 -90 
C 2746 -90 3354 454 3354 1152 
C 3354 1792 2982 2163 2560 2400 
L 2560 2432 
C 2854 2650 3181 3059 3181 3539 
C 3181 4275 2669 4787 1856 4787 
C 1082 4787 506 4307 506 3571 
C 506 3072 787 2720 1133 2470 
L 1133 2438 
C 704 2208 294 1792 294 1171 
C 294 435 947 -90 1830 -90 
z
M 2144 2618 
C 1613 2822 1165 3059 1165 3571 
C 1165 3994 1453 4256 1837 4256 
C 2298 4256 2560 3930 2560 3501 
C 2560 3181 2419 2880 2144 2618 
z
M 1850 448 
C 1338 448 947 774 947 1248 
C 947 1651 1171 2003 1498 2227 
C 2138 1965 2656 1747 2656 1178 
C 2656 730 2330 448 1850 448 
z
" transform="scale(0.015625)"/>
      <path id="NotoSansCJKjp-Medium-30" d="M 1830 -90 
C 2746 -90 3347 736 3347 2374 
C 3347 4000 2746 4800 1830 4800 
C 902 4800 301 4006 301 2374 
C 301 736 902 -90 1830 -90 
z
M 1830 499 
C 1350 499 1011 1018 1011 2374 
C 1011 3725 1350 4218 1830 4218 
C 2304 4218 2643 3725 2643 2374 
C 2643 1018 2304 499 1830 499 
z
" transform="scale(0.015625)"/>
      <path id="NotoSansCJKjp-Medium-ac1c" d="M 3334 5171 
L 3334 -256 
L 3962 -256 
L 3962 2496 
L 4627 2496 
L 4627 -525 
L 5274 -525 
L 5274 5325 
L 4627 5325 
L 4627 3034 
L 3962 3034 
L 3962 5171 
L 3334 5171 
z
M 518 4582 
L 518 4038 
L 2144 4038 
C 2054 2854 1523 1901 262 1171 
L 653 704 
C 2304 1651 2803 3014 2803 4582 
L 518 4582 
z
" transform="scale(0.015625)"/>
      <path id="NotoSansCJKjp-Medium-29" d="M 755 -1274 
C 1357 -301 1709 730 1709 2003 
C 1709 3264 1357 4307 755 5280 
L 294 5075 
C 845 4154 1101 3072 1101 2003 
C 1101 928 845 -154 294 -1069 
L 755 -1274 
z
" transform="scale(0.015625)"/>
     </defs>
     <use xlink:href="#NotoSansCJKjp-Medium-ac19"/>
     <use xlink:href="#NotoSansCJKjp-Medium-c740" transform="translate(91.999985 0)"/>
     <use xlink:href="#NotoSansCJKjp-Medium-20" transform="translate(183.999969 0)"/>
     <use xlink:href="#NotoSansCJKjp-Medium-c870" transform="translate(206.499954 0)"/>
     <use xlink:href="#NotoSansCJKjp-Medium-ac74" transform="translate(298.499939 0)"/>
     <use xlink:href="#NotoSansCJKjp-Medium-20" transform="translate(390.499924 0)"/>
     <use xlink:href="#NotoSansCJKjp-Medium-33" transform="translate(412.999908 0)"/>
     <use xlink:href="#NotoSansCJKjp-Medium-d310" transform="translate(469.999893 0)"/>
     <use xlink:href="#NotoSansCJKjp-Medium-c758" transform="translate(561.999878 0)"/>
     <use xlink:href="#NotoSansCJKjp-Medium-20" transform="translate(653.999863 0)"/>
     <use xlink:href="#NotoSansCJKjp-Medium-b9c8" transform="translate(676.499847 0)"/>
     <use xlink:href="#NotoSansCJKjp-Medium-c9c0" transform="translate(768.499832 0)"/>
     <use xlink:href="#NotoSansCJKjp-Medium-b9c9" transform="translate(860.499817 0)"/>
     <use xlink:href="#NotoSansCJKjp-Medium-20" transform="translate(952.499802 0)"/>
     <use xlink:href="#NotoSansCJKjp-Medium-b2f5" transform="translate(974.999786 0)"/>
     <use xlink:href="#NotoSansCJKjp-Medium-c774" transform="translate(1066.999771 0)"/>
     <use xlink:href="#NotoSansCJKjp-Medium-20" transform="translate(1158.999756 0)"/>
     <use xlink:href="#NotoSansCJKjp-Medium-baa8" transform="translate(1181.499741 0)"/>
     <use xlink:href="#NotoSansCJKjp-Medium-b450" transform="translate(1273.499725 0)"/>
     <use xlink:href="#NotoSansCJKjp-Medium-20" transform="translate(1365.49971 0)"/>
     <use xlink:href="#NotoSansCJKjp-Medium-ac19" transform="translate(1387.999695 0)"/>
     <use xlink:href="#NotoSansCJKjp-Medium-c740" transform="translate(1479.99968 0)"/>
     <use xlink:href="#NotoSansCJKjp-Medium-ac00" transform="translate(1571.999664 0)"/>
     <use xlink:href="#NotoSansCJKjp-Medium-20" transform="translate(1663.999649 0)"/>
     <use xlink:href="#NotoSansCJKjp-Medium-28" transform="translate(1686.499634 0)"/>
     <use xlink:href="#NotoSansCJKjp-Medium-ce78" transform="translate(1722.099625 0)"/>
     <use xlink:href="#NotoSansCJKjp-Medium-20" transform="translate(1814.099609 0)"/>
     <use xlink:href="#NotoSansCJKjp-Medium-38" transform="translate(1836.599594 0)"/>
     <use xlink:href="#NotoSansCJKjp-Medium-30" transform="translate(1893.599579 0)"/>
     <use xlink:href="#NotoSansCJKjp-Medium-ac1c" transform="translate(1950.599564 0)"/>
     <use xlink:href="#NotoSansCJKjp-Medium-29" transform="translate(2042.599548 0)"/>
    </g>
   </g>
   <g id="legend_1">
    <g id="patch_10">
     <path d="M 324.268893 253.814406 
L 343.268893 253.814406 
L 343.268893 247.164406 
L 324.268893 247.164406 
z
" style="fill: #2a78d6; stroke: #2a78d6; stroke-linejoin: miter"/>
    </g>
    <g id="text_16">
     <!-- 3판 모두 같음 -->
     <g style="fill: #52514e" transform="translate(350.868893 253.814406) scale(0.095 -0.095)">
      <defs>
       <path id="NotoSansCJKjp-Regular-33" d="M 1683 -83 
C 2522 -83 3194 416 3194 1254 
C 3194 1901 2752 2310 2202 2445 
L 2202 2477 
C 2701 2650 3034 3034 3034 3603 
C 3034 4346 2458 4774 1664 4774 
C 1126 4774 710 4538 358 4218 
L 672 3846 
C 941 4115 1267 4301 1645 4301 
C 2138 4301 2438 4006 2438 3558 
C 2438 3053 2112 2662 1139 2662 
L 1139 2214 
C 2227 2214 2598 1843 2598 1274 
C 2598 736 2208 403 1645 403 
C 1114 403 762 659 486 941 
L 186 563 
C 493 224 954 -83 1683 -83 
z
" transform="scale(0.015625)"/>
       <path id="NotoSansCJKjp-Regular-d310" d="M 397 1888 
C 1389 1888 2739 1914 3898 2093 
L 3859 2490 
C 3590 2458 3302 2432 3014 2413 
L 3014 4314 
L 3590 4314 
L 3590 4749 
L 493 4749 
L 493 4314 
L 1069 4314 
L 1069 2336 
L 333 2330 
L 397 1888 
z
M 1581 4314 
L 2502 4314 
L 2502 2381 
L 1581 2349 
L 1581 4314 
z
M 4282 5286 
L 4282 1024 
L 4813 1024 
L 4813 3085 
L 5664 3085 
L 5664 3533 
L 4813 3533 
L 4813 5286 
L 4282 5286 
z
M 1210 1427 
L 1210 -371 
L 5069 -371 
L 5069 64 
L 1734 64 
L 1734 1427 
L 1210 1427 
z
" transform="scale(0.015625)"/>
       <path id="NotoSansCJKjp-Regular-baa8" d="M 4410 4384 
L 4410 2509 
L 1453 2509 
L 1453 4384 
L 4410 4384 
z
M 934 4813 
L 934 2086 
L 2669 2086 
L 2669 685 
L 320 685 
L 320 243 
L 5568 243 
L 5568 685 
L 3194 685 
L 3194 2086 
L 4928 2086 
L 4928 4813 
L 934 4813 
z
" transform="scale(0.015625)"/>
       <path id="NotoSansCJKjp-Regular-b450" d="M 1037 4954 
L 1037 2707 
L 4902 2707 
L 4902 3136 
L 1574 3136 
L 1574 4518 
L 4826 4518 
L 4826 4954 
L 1037 4954 
z
M 314 1952 
L 314 1517 
L 2662 1517 
L 2662 -480 
L 3187 -480 
L 3187 1517 
L 5562 1517 
L 5562 1952 
L 314 1952 
z
" transform="scale(0.015625)"/>
      </defs>
      <use xlink:href="#NotoSansCJKjp-Regular-33"/>
      <use xlink:href="#NotoSansCJKjp-Regular-d310" transform="translate(55.499985 0)"/>
      <use xlink:href="#NotoSansCJKjp-Regular-20" transform="translate(147.499969 0)"/>
      <use xlink:href="#NotoSansCJKjp-Regular-baa8" transform="translate(169.899963 0)"/>
      <use xlink:href="#NotoSansCJKjp-Regular-b450" transform="translate(261.899948 0)"/>
      <use xlink:href="#NotoSansCJKjp-Regular-20" transform="translate(353.899933 0)"/>
      <use xlink:href="#NotoSansCJKjp-Regular-ac19" transform="translate(376.299927 0)"/>
      <use xlink:href="#NotoSansCJKjp-Regular-c74c" transform="translate(468.299911 0)"/>
     </g>
    </g>
    <g id="patch_11">
     <path d="M 324.268893 268.301906 
L 343.268893 268.301906 
L 343.268893 261.651906 
L 324.268893 261.651906 
z
" style="fill: #86b6ef; stroke: #86b6ef; stroke-linejoin: miter"/>
    </g>
    <g id="text_17">
     <!-- 2:1로 갈림 -->
     <g style="fill: #52514e" transform="translate(350.868893 268.301906) scale(0.095 -0.095)">
      <defs>
       <path id="NotoSansCJKjp-Regular-3a" d="M 890 2496 
C 1120 2496 1312 2675 1312 2944 
C 1312 3206 1120 3392 890 3392 
C 653 3392 467 3206 467 2944 
C 467 2675 653 2496 890 2496 
z
M 890 -83 
C 1120 -83 1312 96 1312 358 
C 1312 627 1120 806 890 806 
C 653 806 467 627 467 358 
C 467 96 653 -83 890 -83 
z
" transform="scale(0.015625)"/>
       <path id="NotoSansCJKjp-Regular-31" d="M 563 0 
L 3136 0 
L 3136 486 
L 2195 486 
L 2195 4691 
L 1747 4691 
C 1491 4544 1190 4435 774 4358 
L 774 3987 
L 1613 3987 
L 1613 486 
L 563 486 
L 563 0 
z
" transform="scale(0.015625)"/>
       <path id="NotoSansCJKjp-Regular-b85c" d="M 973 2176 
L 973 1741 
L 2669 1741 
L 2669 659 
L 320 659 
L 320 218 
L 5568 218 
L 5568 659 
L 3194 659 
L 3194 1741 
L 5050 1741 
L 5050 2176 
L 1498 2176 
L 1498 3110 
L 4915 3110 
L 4915 4864 
L 960 4864 
L 960 4429 
L 4390 4429 
L 4390 3533 
L 973 3533 
L 973 2176 
z
" transform="scale(0.015625)"/>
       <path id="NotoSansCJKjp-Regular-ac08" d="M 4282 5293 
L 4282 2349 
L 4813 2349 
L 4813 3552 
L 5664 3552 
L 5664 4000 
L 4813 4000 
L 4813 5293 
L 4282 5293 
z
M 582 5011 
L 582 4576 
L 2662 4576 
C 2579 3674 1747 2963 326 2643 
L 531 2202 
C 2208 2598 3251 3552 3251 5011 
L 582 5011 
z
M 1152 -13 
L 1152 -442 
L 5018 -442 
L 5018 -13 
L 1670 -13 
L 1670 646 
L 4813 646 
L 4813 2086 
L 1139 2086 
L 1139 1658 
L 4288 1658 
L 4288 1056 
L 1152 1056 
L 1152 -13 
z
" transform="scale(0.015625)"/>
       <path id="NotoSansCJKjp-Regular-b9bc" d="M 4531 5286 
L 4531 1856 
L 5062 1856 
L 5062 5286 
L 4531 5286 
z
M 1325 1542 
L 1325 -422 
L 5062 -422 
L 5062 1542 
L 1325 1542 
z
M 4544 1114 
L 4544 13 
L 1843 13 
L 1843 1114 
L 4544 1114 
z
M 608 4941 
L 608 4512 
L 2714 4512 
L 2714 3776 
L 621 3776 
L 621 2131 
L 1088 2131 
C 2157 2131 2944 2163 3898 2317 
L 3834 2752 
C 2918 2598 2163 2573 1139 2573 
L 1139 3360 
L 3232 3360 
L 3232 4941 
L 608 4941 
z
" transform="scale(0.015625)"/>
      </defs>
      <use xlink:href="#NotoSansCJKjp-Regular-32"/>
      <use xlink:href="#NotoSansCJKjp-Regular-3a" transform="translate(55.499985 0)"/>
      <use xlink:href="#NotoSansCJKjp-Regular-31" transform="translate(83.299973 0)"/>
      <use xlink:href="#NotoSansCJKjp-Regular-b85c" transform="translate(138.799957 0)"/>
      <use xlink:href="#NotoSansCJKjp-Regular-20" transform="translate(230.799942 0)"/>
      <use xlink:href="#NotoSansCJKjp-Regular-ac08" transform="translate(253.199936 0)"/>
      <use xlink:href="#NotoSansCJKjp-Regular-b9bc" transform="translate(345.199921 0)"/>
     </g>
    </g>
   </g>
  </g>
  <g id="axes_2">
   <g id="patch_12">
    <path d="M 446.41108 279.028 
L 709.2 279.028 
L 709.2 44.6925 
L 446.41108 44.6925 
z
" style="fill: #fcfcfb"/>
   </g>
   <g id="matplotlib.axis_3">
    <g id="xtick_6">
     <g id="line2d_11"/>
     <g id="text_18">
      <!-- 압박 없음 -->
      <g style="fill: #52514e" transform="translate(462.72562 290.487375) scale(0.1 -0.1)">
       <use xlink:href="#NotoSansCJKjp-Regular-c555"/>
       <use xlink:href="#NotoSansCJKjp-Regular-bc15" transform="translate(91.999985 0)"/>
       <use xlink:href="#NotoSansCJKjp-Regular-20" transform="translate(183.999969 0)"/>
       <use xlink:href="#NotoSansCJKjp-Regular-c5c6" transform="translate(206.399963 0)"/>
       <use xlink:href="#NotoSansCJKjp-Regular-c74c" transform="translate(298.399948 0)"/>
      </g>
     </g>
    </g>
    <g id="xtick_7">
     <g id="line2d_12"/>
     <g id="text_19">
      <!-- 같은 편 압박 -->
      <g style="fill: #52514e" transform="translate(552.564915 290.487375) scale(0.1 -0.1)">
       <use xlink:href="#NotoSansCJKjp-Regular-ac19"/>
       <use xlink:href="#NotoSansCJKjp-Regular-c740" transform="translate(91.999985 0)"/>
       <use xlink:href="#NotoSansCJKjp-Regular-20" transform="translate(183.999969 0)"/>
       <use xlink:href="#NotoSansCJKjp-Regular-d3b8" transform="translate(206.399963 0)"/>
       <use xlink:href="#NotoSansCJKjp-Regular-20" transform="translate(298.399948 0)"/>
       <use xlink:href="#NotoSansCJKjp-Regular-c555" transform="translate(320.799942 0)"/>
       <use xlink:href="#NotoSansCJKjp-Regular-bc15" transform="translate(412.799927 0)"/>
      </g>
     </g>
    </g>
    <g id="xtick_8">
     <g id="line2d_13"/>
     <g id="text_20">
      <!-- 반대편 압박 -->
      <g style="fill: #52514e" transform="translate(649.244835 290.487375) scale(0.1 -0.1)">
       <use xlink:href="#NotoSansCJKjp-Regular-bc18"/>
       <use xlink:href="#NotoSansCJKjp-Regular-b300" transform="translate(91.999985 0)"/>
       <use xlink:href="#NotoSansCJKjp-Regular-d3b8" transform="translate(183.999969 0)"/>
       <use xlink:href="#NotoSansCJKjp-Regular-20" transform="translate(275.999954 0)"/>
       <use xlink:href="#NotoSansCJKjp-Regular-c555" transform="translate(298.399948 0)"/>
       <use xlink:href="#NotoSansCJKjp-Regular-bc15" transform="translate(390.399933 0)"/>
      </g>
     </g>
    </g>
   </g>
   <g id="matplotlib.axis_4">
    <g id="ytick_1">
     <g id="line2d_14">
      <path d="M 446.41108 279.028 
L 709.2 279.028 
" clip-path="url(#pe985e39f28)" style="fill: none; stroke: #e1e0d9; stroke-linecap: square"/>
     </g>
     <g id="line2d_15"/>
     <g id="text_21">
      <!-- 0.0 -->
      <g style="fill: #898781" transform="translate(429.031393 283.007687) scale(0.1 -0.1)">
       <defs>
        <path id="NotoSansCJKjp-Regular-2e" d="M 890 -83 
C 1120 -83 1312 96 1312 358 
C 1312 627 1120 806 890 806 
C 653 806 467 627 467 358 
C 467 96 653 -83 890 -83 
z
" transform="scale(0.015625)"/>
       </defs>
       <use xlink:href="#NotoSansCJKjp-Regular-30"/>
       <use xlink:href="#NotoSansCJKjp-Regular-2e" transform="translate(55.499985 0)"/>
       <use xlink:href="#NotoSansCJKjp-Regular-30" transform="translate(83.299973 0)"/>
      </g>
     </g>
    </g>
    <g id="ytick_2">
     <g id="line2d_16">
      <path d="M 446.41108 212.075 
L 709.2 212.075 
" clip-path="url(#pe985e39f28)" style="fill: none; stroke: #e1e0d9; stroke-linecap: square"/>
     </g>
     <g id="line2d_17"/>
     <g id="text_22">
      <!-- 0.2 -->
      <g style="fill: #898781" transform="translate(429.031393 216.054688) scale(0.1 -0.1)">
       <use xlink:href="#NotoSansCJKjp-Regular-30"/>
       <use xlink:href="#NotoSansCJKjp-Regular-2e" transform="translate(55.499985 0)"/>
       <use xlink:href="#NotoSansCJKjp-Regular-32" transform="translate(83.299973 0)"/>
      </g>
     </g>
    </g>
    <g id="ytick_3">
     <g id="line2d_18">
      <path d="M 446.41108 145.122 
L 709.2 145.122 
" clip-path="url(#pe985e39f28)" style="fill: none; stroke: #e1e0d9; stroke-linecap: square"/>
     </g>
     <g id="line2d_19"/>
     <g id="text_23">
      <!-- 0.4 -->
      <g style="fill: #898781" transform="translate(429.031393 149.101687) scale(0.1 -0.1)">
       <use xlink:href="#NotoSansCJKjp-Regular-30"/>
       <use xlink:href="#NotoSansCJKjp-Regular-2e" transform="translate(55.499985 0)"/>
       <use xlink:href="#NotoSansCJKjp-Regular-34" transform="translate(83.299973 0)"/>
      </g>
     </g>
    </g>
    <g id="ytick_4">
     <g id="line2d_20">
      <path d="M 446.41108 78.169 
L 709.2 78.169 
" clip-path="url(#pe985e39f28)" style="fill: none; stroke: #e1e0d9; stroke-linecap: square"/>
     </g>
     <g id="line2d_21"/>
     <g id="text_24">
      <!-- 0.6 -->
      <g style="fill: #898781" transform="translate(429.031393 82.148688) scale(0.1 -0.1)">
       <use xlink:href="#NotoSansCJKjp-Regular-30"/>
       <use xlink:href="#NotoSansCJKjp-Regular-2e" transform="translate(55.499985 0)"/>
       <use xlink:href="#NotoSansCJKjp-Regular-36" transform="translate(83.299973 0)"/>
      </g>
     </g>
    </g>
   </g>
   <g id="patch_13">
    <path d="M 446.41108 279.028 
L 446.41108 44.6925 
" style="fill: none; stroke: #c3c2b7; stroke-width: 0.8; stroke-linejoin: miter; stroke-linecap: square"/>
   </g>
   <g id="patch_14">
    <path d="M 446.41108 279.028 
L 709.2 279.028 
" style="fill: none; stroke: #c3c2b7; stroke-width: 0.8; stroke-linejoin: miter; stroke-linecap: square"/>
   </g>
   <g id="patch_15">
    <path d="M 458.356031 279.028 
L 506.135835 279.028 
L 506.135835 98.2549 
L 458.356031 98.2549 
z
" clip-path="url(#pe985e39f28)" style="fill: #2a78d6"/>
   </g>
   <g id="text_25">
    <!-- 0.54 -->
    <g style="fill: #0b0b0b" transform="translate(471.202105 90.780769) scale(0.11 -0.11)">
     <defs>
      <path id="NotoSansCJKjp-Medium-2e" d="M 954 -90 
C 1235 -90 1453 134 1453 435 
C 1453 736 1235 954 954 954 
C 678 954 461 736 461 435 
C 461 134 678 -90 954 -90 
z
" transform="scale(0.015625)"/>
      <path id="NotoSansCJKjp-Medium-35" d="M 1715 -90 
C 2541 -90 3302 506 3302 1549 
C 3302 2579 2656 3046 1869 3046 
C 1619 3046 1427 2989 1222 2886 
L 1331 4090 
L 3078 4090 
L 3078 4717 
L 691 4717 
L 550 2477 
L 915 2240 
C 1184 2419 1363 2502 1664 2502 
C 2202 2502 2560 2144 2560 1530 
C 2560 896 2157 525 1632 525 
C 1133 525 794 755 525 1024 
L 173 544 
C 506 218 973 -90 1715 -90 
z
" transform="scale(0.015625)"/>
     </defs>
     <use xlink:href="#NotoSansCJKjp-Medium-30"/>
     <use xlink:href="#NotoSansCJKjp-Medium-2e" transform="translate(56.999985 0)"/>
     <use xlink:href="#NotoSansCJKjp-Medium-35" transform="translate(86.799973 0)"/>
     <use xlink:href="#NotoSansCJKjp-Medium-34" transform="translate(143.799957 0)"/>
    </g>
   </g>
   <g id="patch_16">
    <path d="M 553.915638 279.028 
L 601.695442 279.028 
L 601.695442 108.29785 
L 553.915638 108.29785 
z
" clip-path="url(#pe985e39f28)" style="fill: #2a78d6"/>
   </g>
   <g id="text_26">
    <!-- 0.51 -->
    <g style="fill: #0b0b0b" transform="translate(566.761712 100.823719) scale(0.11 -0.11)">
     <use xlink:href="#NotoSansCJKjp-Medium-30"/>
     <use xlink:href="#NotoSansCJKjp-Medium-2e" transform="translate(56.999985 0)"/>
     <use xlink:href="#NotoSansCJKjp-Medium-35" transform="translate(86.799973 0)"/>
     <use xlink:href="#NotoSansCJKjp-Medium-31" transform="translate(143.799957 0)"/>
    </g>
   </g>
   <g id="patch_17">
    <path d="M 649.475245 279.028 
L 697.255049 279.028 
L 697.255049 161.86025 
L 649.475245 161.86025 
z
" clip-path="url(#pe985e39f28)" style="fill: #2a78d6"/>
   </g>
   <g id="text_27">
    <!-- 0.35 -->
    <g style="fill: #0b0b0b" transform="translate(662.321319 154.386119) scale(0.11 -0.11)">
     <use xlink:href="#NotoSansCJKjp-Medium-30"/>
     <use xlink:href="#NotoSansCJKjp-Medium-2e" transform="translate(56.999985 0)"/>
     <use xlink:href="#NotoSansCJKjp-Medium-33" transform="translate(86.799973 0)"/>
     <use xlink:href="#NotoSansCJKjp-Medium-35" transform="translate(143.799957 0)"/>
    </g>
   </g>
   <g id="text_28">
    <!-- 마지막 수첩에 남은 사실이 3판 사이에 겹치는 정도 -->
    <g style="fill: #0b0b0b" transform="translate(446.41108 19.521031) scale(0.11 -0.11)">
     <defs>
      <path id="NotoSansCJKjp-Medium-c218" d="M 2586 5133 
L 2586 4826 
C 2586 4064 1722 3334 531 3162 
L 794 2624 
C 1766 2778 2573 3270 2944 3949 
C 3322 3270 4122 2778 5088 2624 
L 5350 3162 
C 4173 3334 3296 4070 3296 4826 
L 3296 5133 
L 2586 5133 
z
M 294 2080 
L 294 1530 
L 2592 1530 
L 2592 -531 
L 3258 -531 
L 3258 1530 
L 5581 1530 
L 5581 2080 
L 294 2080 
z
" transform="scale(0.015625)"/>
      <path id="NotoSansCJKjp-Medium-cca9" d="M 1338 1830 
L 1338 -454 
L 5139 -454 
L 5139 1830 
L 4474 1830 
L 4474 1216 
L 2003 1216 
L 2003 1830 
L 1338 1830 
z
M 2003 691 
L 4474 691 
L 4474 83 
L 2003 83 
L 2003 691 
z
M 1690 5344 
L 1690 4717 
L 454 4717 
L 454 4186 
L 1690 4186 
L 1690 4141 
C 1690 3443 1171 2797 269 2547 
L 582 2016 
C 1274 2221 1779 2656 2035 3213 
C 2304 2701 2797 2304 3482 2125 
L 3782 2650 
C 2880 2886 2355 3488 2355 4141 
L 2355 4186 
L 3584 4186 
L 3584 4717 
L 2355 4717 
L 2355 5344 
L 1690 5344 
z
M 4467 5318 
L 4467 3802 
L 3430 3802 
L 3430 3258 
L 4467 3258 
L 4467 2074 
L 5139 2074 
L 5139 5318 
L 4467 5318 
z
" transform="scale(0.015625)"/>
      <path id="NotoSansCJKjp-Medium-c5d0" d="M 4646 5325 
L 4646 -525 
L 5286 -525 
L 5286 5325 
L 4646 5325 
z
M 1606 4237 
C 2010 4237 2253 3718 2253 2790 
C 2253 1869 2010 1344 1606 1344 
C 1210 1344 966 1869 966 2790 
C 966 3718 1210 4237 1606 4237 
z
M 1606 4870 
C 845 4870 358 4077 358 2790 
C 358 1504 845 717 1606 717 
C 2323 717 2803 1408 2861 2554 
L 3475 2554 
L 3475 -250 
L 4102 -250 
L 4102 5210 
L 3475 5210 
L 3475 3104 
L 2854 3104 
C 2784 4205 2310 4870 1606 4870 
z
" transform="scale(0.015625)"/>
      <path id="NotoSansCJKjp-Medium-b0a8" d="M 1120 1728 
L 1120 -454 
L 4858 -454 
L 4858 1728 
L 1120 1728 
z
M 4205 1190 
L 4205 83 
L 1779 83 
L 1779 1190 
L 4205 1190 
z
M 4192 5318 
L 4192 2022 
L 4858 2022 
L 4858 3475 
L 5690 3475 
L 5690 4032 
L 4858 4032 
L 4858 5318 
L 4192 5318 
z
M 557 2950 
L 557 2394 
L 1030 2394 
C 1882 2394 2765 2451 3738 2656 
L 3661 3194 
C 2790 3021 1984 2963 1222 2950 
L 1222 5037 
L 557 5037 
L 557 2950 
z
" transform="scale(0.015625)"/>
      <path id="NotoSansCJKjp-Medium-c0ac" d="M 1677 4838 
L 1677 3878 
C 1677 2803 1107 1683 198 1242 
L 602 698 
C 1261 1037 1754 1715 2010 2528 
C 2266 1766 2733 1133 3354 806 
L 3763 1344 
C 2886 1779 2342 2842 2342 3878 
L 2342 4838 
L 1677 4838 
z
M 4154 5318 
L 4154 -531 
L 4826 -531 
L 4826 2445 
L 5734 2445 
L 5734 3008 
L 4826 3008 
L 4826 5318 
L 4154 5318 
z
" transform="scale(0.015625)"/>
      <path id="NotoSansCJKjp-Medium-c2e4" d="M 4442 5318 
L 4442 2330 
L 5114 2330 
L 5114 5318 
L 4442 5318 
z
M 1293 51 
L 1293 -474 
L 5293 -474 
L 5293 51 
L 1952 51 
L 1952 563 
L 5114 563 
L 5114 2048 
L 1280 2048 
L 1280 1523 
L 4454 1523 
L 4454 1050 
L 1293 1050 
L 1293 51 
z
M 1747 5165 
L 1747 4723 
C 1747 3936 1229 3181 301 2874 
L 634 2342 
C 1331 2579 1837 3072 2099 3693 
C 2362 3117 2854 2669 3526 2451 
L 3853 2976 
C 2950 3258 2426 3968 2426 4723 
L 2426 5165 
L 1747 5165 
z
" transform="scale(0.015625)"/>
      <path id="NotoSansCJKjp-Medium-acb9" d="M 1318 1888 
L 1318 -461 
L 5139 -461 
L 5139 1888 
L 4474 1888 
L 4474 1242 
L 1984 1242 
L 1984 1888 
L 1318 1888 
z
M 1984 717 
L 4474 717 
L 4474 77 
L 1984 77 
L 1984 717 
z
M 4467 5325 
L 4467 4461 
L 3283 4461 
C 3309 4627 3322 4794 3322 4973 
L 659 4973 
L 659 4435 
L 2592 4435 
C 2490 3565 1747 2899 358 2560 
L 621 2029 
C 1914 2355 2784 2995 3136 3923 
L 4467 3923 
L 4467 3264 
L 3066 3264 
L 3066 2720 
L 4467 2720 
L 4467 2170 
L 5139 2170 
L 5139 5325 
L 4467 5325 
z
" transform="scale(0.015625)"/>
      <path id="NotoSansCJKjp-Medium-ce58" d="M 4442 5325 
L 4442 -525 
L 5114 -525 
L 5114 5325 
L 4442 5325 
z
M 1830 5203 
L 1830 4333 
L 544 4333 
L 544 3802 
L 1837 3802 
L 1837 3462 
C 1837 2502 1274 1510 365 1094 
L 730 576 
C 1408 890 1920 1530 2176 2298 
C 2445 1568 2957 966 3622 678 
L 3987 1197 
C 3078 1594 2502 2547 2502 3462 
L 2502 3802 
L 3776 3802 
L 3776 4333 
L 2502 4333 
L 2502 5203 
L 1830 5203 
z
" transform="scale(0.015625)"/>
      <path id="NotoSansCJKjp-Medium-b294" d="M 294 2400 
L 294 1862 
L 5594 1862 
L 5594 2400 
L 294 2400 
z
M 979 5114 
L 979 3104 
L 4992 3104 
L 4992 3642 
L 1645 3642 
L 1645 5114 
L 979 5114 
z
M 934 1331 
L 934 -390 
L 5024 -390 
L 5024 147 
L 1606 147 
L 1606 1331 
L 934 1331 
z
" transform="scale(0.015625)"/>
      <path id="NotoSansCJKjp-Medium-c815" d="M 3194 1683 
C 1971 1683 1216 1274 1216 576 
C 1216 -122 1971 -525 3194 -525 
C 4410 -525 5165 -122 5165 576 
C 5165 1274 4410 1683 3194 1683 
z
M 3194 1171 
C 4019 1171 4499 960 4499 576 
C 4499 198 4019 -13 3194 -13 
C 2362 -13 1888 198 1888 576 
C 1888 960 2362 1171 3194 1171 
z
M 4467 5318 
L 4467 3853 
L 3437 3853 
L 3437 3302 
L 4467 3302 
L 4467 1837 
L 5139 1837 
L 5139 5318 
L 4467 5318 
z
M 486 4928 
L 486 4384 
L 1722 4384 
L 1722 4307 
C 1722 3507 1203 2726 294 2400 
L 634 1869 
C 1325 2118 1824 2630 2074 3270 
C 2330 2707 2797 2253 3443 2029 
L 3776 2554 
C 2893 2861 2400 3584 2400 4307 
L 2400 4384 
L 3616 4384 
L 3616 4928 
L 486 4928 
z
" transform="scale(0.015625)"/>
      <path id="NotoSansCJKjp-Medium-b3c4" d="M 941 4883 
L 941 2106 
L 2598 2106 
L 2598 723 
L 294 723 
L 294 173 
L 5594 173 
L 5594 723 
L 3270 723 
L 3270 2106 
L 4998 2106 
L 4998 2643 
L 1613 2643 
L 1613 4339 
L 4947 4339 
L 4947 4883 
L 941 4883 
z
" transform="scale(0.015625)"/>
     </defs>
     <use xlink:href="#NotoSansCJKjp-Medium-b9c8"/>
     <use xlink:href="#NotoSansCJKjp-Medium-c9c0" transform="translate(91.999985 0)"/>
     <use xlink:href="#NotoSansCJKjp-Medium-b9c9" transform="translate(183.999969 0)"/>
     <use xlink:href="#NotoSansCJKjp-Medium-20" transform="translate(275.999954 0)"/>
     <use xlink:href="#NotoSansCJKjp-Medium-c218" transform="translate(298.499939 0)"/>
     <use xlink:href="#NotoSansCJKjp-Medium-cca9" transform="translate(390.499924 0)"/>
     <use xlink:href="#NotoSansCJKjp-Medium-c5d0" transform="translate(482.499908 0)"/>
     <use xlink:href="#NotoSansCJKjp-Medium-20" transform="translate(574.499893 0)"/>
     <use xlink:href="#NotoSansCJKjp-Medium-b0a8" transform="translate(596.999878 0)"/>
     <use xlink:href="#NotoSansCJKjp-Medium-c740" transform="translate(688.999863 0)"/>
     <use xlink:href="#NotoSansCJKjp-Medium-20" transform="translate(780.999847 0)"/>
     <use xlink:href="#NotoSansCJKjp-Medium-c0ac" transform="translate(803.499832 0)"/>
     <use xlink:href="#NotoSansCJKjp-Medium-c2e4" transform="translate(895.499817 0)"/>
     <use xlink:href="#NotoSansCJKjp-Medium-c774" transform="translate(987.499802 0)"/>
     <use xlink:href="#NotoSansCJKjp-Medium-20" transform="translate(1079.499786 0)"/>
     <use xlink:href="#NotoSansCJKjp-Medium-33" transform="translate(1101.999771 0)"/>
     <use xlink:href="#NotoSansCJKjp-Medium-d310" transform="translate(1158.999756 0)"/>
     <use xlink:href="#NotoSansCJKjp-Medium-20" transform="translate(1250.999741 0)"/>
     <use xlink:href="#NotoSansCJKjp-Medium-c0ac" transform="translate(1273.499725 0)"/>
     <use xlink:href="#NotoSansCJKjp-Medium-c774" transform="translate(1365.49971 0)"/>
     <use xlink:href="#NotoSansCJKjp-Medium-c5d0" transform="translate(1457.499695 0)"/>
     <use xlink:href="#NotoSansCJKjp-Medium-20" transform="translate(1549.49968 0)"/>
     <use xlink:href="#NotoSansCJKjp-Medium-acb9" transform="translate(1571.999664 0)"/>
     <use xlink:href="#NotoSansCJKjp-Medium-ce58" transform="translate(1663.999649 0)"/>
     <use xlink:href="#NotoSansCJKjp-Medium-b294" transform="translate(1755.999634 0)"/>
     <use xlink:href="#NotoSansCJKjp-Medium-20" transform="translate(1847.999619 0)"/>
     <use xlink:href="#NotoSansCJKjp-Medium-c815" transform="translate(1870.499603 0)"/>
     <use xlink:href="#NotoSansCJKjp-Medium-b3c4" transform="translate(1962.499588 0)"/>
    </g>
    <!-- (1 = 완전히 같음, 0 = 하나도 안 겹침) -->
    <g style="fill: #0b0b0b" transform="translate(446.41108 32.6925) scale(0.11 -0.11)">
     <defs>
      <path id="NotoSansCJKjp-Medium-3d" d="M 243 2906 
L 3405 2906 
L 3405 3437 
L 243 3437 
L 243 2906 
z
M 243 1318 
L 3405 1318 
L 3405 1856 
L 243 1856 
L 243 1318 
z
" transform="scale(0.015625)"/>
      <path id="NotoSansCJKjp-Medium-c644" d="M 2048 4557 
C 2534 4557 2874 4301 2874 3898 
C 2874 3494 2534 3238 2048 3238 
C 1562 3238 1229 3494 1229 3898 
C 1229 4301 1562 4557 2048 4557 
z
M 358 1670 
C 1350 1670 2707 1683 3910 1907 
L 3859 2394 
C 3392 2323 2893 2278 2394 2253 
L 2394 2752 
C 3059 2867 3501 3296 3501 3898 
C 3501 4595 2899 5069 2048 5069 
C 1203 5069 602 4595 602 3898 
C 602 3290 1056 2854 1728 2752 
L 1728 2227 
C 1210 2208 710 2208 282 2208 
L 358 1670 
z
M 4205 5318 
L 4205 851 
L 4870 851 
L 4870 2848 
L 5677 2848 
L 5677 3405 
L 4870 3405 
L 4870 5318 
L 4205 5318 
z
M 1088 1229 
L 1088 -410 
L 5075 -410 
L 5075 134 
L 1760 134 
L 1760 1229 
L 1088 1229 
z
" transform="scale(0.015625)"/>
      <path id="NotoSansCJKjp-Medium-c804" d="M 4467 5318 
L 4467 3750 
L 3411 3750 
L 3411 3206 
L 4467 3206 
L 4467 1043 
L 5139 1043 
L 5139 5318 
L 4467 5318 
z
M 1350 1414 
L 1350 -410 
L 5293 -410 
L 5293 134 
L 2022 134 
L 2022 1414 
L 1350 1414 
z
M 486 4877 
L 486 4339 
L 1722 4339 
L 1722 4147 
C 1722 3354 1203 2586 288 2272 
L 634 1741 
C 1318 1984 1818 2483 2074 3110 
C 2323 2547 2790 2093 3443 1869 
L 3776 2394 
C 2893 2694 2400 3424 2400 4154 
L 2400 4339 
L 3616 4339 
L 3616 4877 
L 486 4877 
z
" transform="scale(0.015625)"/>
      <path id="NotoSansCJKjp-Medium-d788" d="M 4435 5325 
L 4435 -525 
L 5107 -525 
L 5107 5325 
L 4435 5325 
z
M 2176 3462 
C 1325 3462 704 2899 704 2093 
C 704 1293 1325 730 2176 730 
C 3021 730 3642 1293 3642 2093 
C 3642 2899 3021 3462 2176 3462 
z
M 2176 2912 
C 2650 2912 3002 2586 3002 2093 
C 3002 1606 2650 1280 2176 1280 
C 1696 1280 1344 1606 1344 2093 
C 1344 2586 1696 2912 2176 2912 
z
M 1830 5254 
L 1830 4410 
L 422 4410 
L 422 3866 
L 3910 3866 
L 3910 4410 
L 2502 4410 
L 2502 5254 
L 1830 5254 
z
" transform="scale(0.015625)"/>
      <path id="NotoSansCJKjp-Medium-c74c" d="M 2938 5203 
C 1658 5203 851 4781 851 4077 
C 851 3379 1658 2963 2938 2963 
C 4211 2963 5018 3379 5018 4077 
C 5018 4781 4211 5203 2938 5203 
z
M 2938 4678 
C 3808 4678 4326 4467 4326 4077 
C 4326 3693 3808 3482 2938 3482 
C 2067 3482 1542 3693 1542 4077 
C 1542 4467 2067 4678 2938 4678 
z
M 928 1498 
L 928 -454 
L 4941 -454 
L 4941 1498 
L 928 1498 
z
M 4282 966 
L 4282 77 
L 1581 77 
L 1581 966 
L 4282 966 
z
M 294 2534 
L 294 1997 
L 5581 1997 
L 5581 2534 
L 294 2534 
z
" transform="scale(0.015625)"/>
      <path id="NotoSansCJKjp-Medium-2c" d="M 506 -1280 
C 1171 -1030 1555 -512 1555 160 
C 1555 653 1350 954 986 954 
C 704 954 474 768 474 480 
C 474 179 704 6 966 6 
L 1037 13 
C 1037 -371 774 -685 339 -864 
L 506 -1280 
z
" transform="scale(0.015625)"/>
      <path id="NotoSansCJKjp-Medium-d558" d="M 1997 3462 
C 1165 3462 550 2899 550 2093 
C 550 1293 1165 730 1997 730 
C 2835 730 3450 1293 3450 2093 
C 3450 2899 2835 3462 1997 3462 
z
M 1997 2912 
C 2464 2912 2810 2586 2810 2093 
C 2810 1606 2464 1280 1997 1280 
C 1530 1280 1184 1606 1184 2093 
C 1184 2586 1530 2912 1997 2912 
z
M 4160 5318 
L 4160 -531 
L 4832 -531 
L 4832 2413 
L 5734 2413 
L 5734 2970 
L 4832 2970 
L 4832 5318 
L 4160 5318 
z
M 1658 5242 
L 1658 4416 
L 262 4416 
L 262 3878 
L 3693 3878 
L 3693 4416 
L 2330 4416 
L 2330 5242 
L 1658 5242 
z
" transform="scale(0.015625)"/>
      <path id="NotoSansCJKjp-Medium-b098" d="M 4154 5325 
L 4154 -525 
L 4826 -525 
L 4826 2490 
L 5709 2490 
L 5709 3046 
L 4826 3046 
L 4826 5325 
L 4154 5325 
z
M 499 1491 
L 499 934 
L 986 934 
C 1856 934 2771 992 3757 1190 
L 3686 1747 
C 2797 1568 1958 1504 1171 1491 
L 1171 4755 
L 499 4755 
L 499 1491 
z
" transform="scale(0.015625)"/>
      <path id="NotoSansCJKjp-Medium-c548" d="M 1920 4928 
C 1043 4928 371 4320 371 3462 
C 371 2618 1043 2003 1920 2003 
C 2803 2003 3475 2618 3475 3462 
C 3475 4320 2803 4928 1920 4928 
z
M 1920 4346 
C 2432 4346 2822 3994 2822 3462 
C 2822 2938 2432 2592 1920 2592 
C 1414 2592 1024 2938 1024 3462 
C 1024 3994 1414 4346 1920 4346 
z
M 4192 5325 
L 4192 1037 
L 4858 1037 
L 4858 3034 
L 5683 3034 
L 5683 3590 
L 4858 3590 
L 4858 5325 
L 4192 5325 
z
M 1158 1478 
L 1158 -410 
L 5101 -410 
L 5101 134 
L 1830 134 
L 1830 1478 
L 1158 1478 
z
" transform="scale(0.015625)"/>
      <path id="NotoSansCJKjp-Medium-ce68" d="M 4442 5318 
L 4442 1875 
L 5114 1875 
L 5114 5318 
L 4442 5318 
z
M 1293 1594 
L 1293 -454 
L 5114 -454 
L 5114 1594 
L 1293 1594 
z
M 4461 1062 
L 4461 77 
L 1946 77 
L 1946 1062 
L 4461 1062 
z
M 1811 5344 
L 1811 4685 
L 544 4685 
L 544 4154 
L 1811 4154 
L 1811 4141 
C 1811 3418 1286 2726 378 2451 
L 691 1926 
C 1395 2138 1894 2592 2157 3174 
C 2426 2643 2931 2234 3610 2042 
L 3923 2566 
C 3014 2816 2477 3462 2477 4141 
L 2477 4154 
L 3731 4154 
L 3731 4685 
L 2477 4685 
L 2477 5344 
L 1811 5344 
z
" transform="scale(0.015625)"/>
     </defs>
     <use xlink:href="#NotoSansCJKjp-Medium-28"/>
     <use xlink:href="#NotoSansCJKjp-Medium-31" transform="translate(35.599991 0)"/>
     <use xlink:href="#NotoSansCJKjp-Medium-20" transform="translate(92.599976 0)"/>
     <use xlink:href="#NotoSansCJKjp-Medium-3d" transform="translate(115.09996 0)"/>
     <use xlink:href="#NotoSansCJKjp-Medium-20" transform="translate(172.099945 0)"/>
     <use xlink:href="#NotoSansCJKjp-Medium-c644" transform="translate(194.59993 0)"/>
     <use xlink:href="#NotoSansCJKjp-Medium-c804" transform="translate(286.599915 0)"/>
     <use xlink:href="#NotoSansCJKjp-Medium-d788" transform="translate(378.599899 0)"/>
     <use xlink:href="#NotoSansCJKjp-Medium-20" transform="translate(470.599884 0)"/>
     <use xlink:href="#NotoSansCJKjp-Medium-ac19" transform="translate(493.099869 0)"/>
     <use xlink:href="#NotoSansCJKjp-Medium-c74c" transform="translate(585.099854 0)"/>
     <use xlink:href="#NotoSansCJKjp-Medium-2c" transform="translate(677.099838 0)"/>
     <use xlink:href="#NotoSansCJKjp-Medium-20" transform="translate(706.899826 0)"/>
     <use xlink:href="#NotoSansCJKjp-Medium-30" transform="translate(729.399811 0)"/>
     <use xlink:href="#NotoSansCJKjp-Medium-20" transform="translate(786.399796 0)"/>
     <use xlink:href="#NotoSansCJKjp-Medium-3d" transform="translate(808.89978 0)"/>
     <use xlink:href="#NotoSansCJKjp-Medium-20" transform="translate(865.899765 0)"/>
     <use xlink:href="#NotoSansCJKjp-Medium-d558" transform="translate(888.39975 0)"/>
     <use xlink:href="#NotoSansCJKjp-Medium-b098" transform="translate(980.399734 0)"/>
     <use xlink:href="#NotoSansCJKjp-Medium-b3c4" transform="translate(1072.399719 0)"/>
     <use xlink:href="#NotoSansCJKjp-Medium-20" transform="translate(1164.399704 0)"/>
     <use xlink:href="#NotoSansCJKjp-Medium-c548" transform="translate(1186.899689 0)"/>
     <use xlink:href="#NotoSansCJKjp-Medium-20" transform="translate(1278.899673 0)"/>
     <use xlink:href="#NotoSansCJKjp-Medium-acb9" transform="translate(1301.399658 0)"/>
     <use xlink:href="#NotoSansCJKjp-Medium-ce68" transform="translate(1393.399643 0)"/>
     <use xlink:href="#NotoSansCJKjp-Medium-29" transform="translate(1485.399628 0)"/>
    </g>
   </g>
  </g>
  <g id="text_29">
   <!-- claude-haiku 가치판 720판 · 칸 = 시나리오 × 가치 문장 · 겹치는 정도는 단어 찾기 채점 · 확정 아님(참고 수치) -->
   <g style="fill: #898781" transform="translate(7.2 313.632) scale(0.08 -0.08)">
    <defs>
     <path id="NotoSansCJKjp-Regular-63" d="M 1958 -83 
C 2374 -83 2771 83 3085 352 
L 2829 749 
C 2611 557 2330 403 2010 403 
C 1370 403 934 934 934 1734 
C 934 2534 1395 3072 2029 3072 
C 2298 3072 2522 2950 2720 2771 
L 3014 3155 
C 2771 3373 2458 3565 2003 3565 
C 1107 3565 333 2893 333 1734 
C 333 582 1037 -83 1958 -83 
z
" transform="scale(0.015625)"/>
     <path id="NotoSansCJKjp-Regular-6c" d="M 1203 -83 
C 1363 -83 1459 -58 1542 -32 
L 1459 416 
C 1395 403 1370 403 1338 403 
C 1248 403 1178 474 1178 653 
L 1178 5094 
L 589 5094 
L 589 691 
C 589 198 768 -83 1203 -83 
z
" transform="scale(0.015625)"/>
     <path id="NotoSansCJKjp-Regular-61" d="M 1389 -83 
C 1818 -83 2208 141 2541 416 
L 2560 416 
L 2611 0 
L 3091 0 
L 3091 2138 
C 3091 3002 2739 3565 1888 3565 
C 1325 3565 838 3315 525 3110 
L 749 2707 
C 1024 2893 1389 3078 1792 3078 
C 2362 3078 2509 2650 2509 2202 
C 1030 2035 378 1658 378 902 
C 378 275 806 -83 1389 -83 
z
M 1555 390 
C 1210 390 941 544 941 941 
C 941 1389 1338 1677 2509 1811 
L 2509 845 
C 2170 544 1888 390 1555 390 
z
" transform="scale(0.015625)"/>
     <path id="NotoSansCJKjp-Regular-75" d="M 1606 -83 
C 2080 -83 2426 166 2752 544 
L 2771 544 
L 2816 0 
L 3302 0 
L 3302 3475 
L 2720 3475 
L 2720 1011 
C 2387 602 2138 422 1779 422 
C 1318 422 1126 698 1126 1344 
L 1126 3475 
L 538 3475 
L 538 1274 
C 538 384 870 -83 1606 -83 
z
" transform="scale(0.015625)"/>
     <path id="NotoSansCJKjp-Regular-64" d="M 1773 -83 
C 2189 -83 2560 141 2829 410 
L 2848 410 
L 2899 0 
L 3379 0 
L 3379 5094 
L 2790 5094 
L 2790 3757 
L 2822 3162 
C 2515 3411 2253 3565 1843 3565 
C 1050 3565 339 2861 339 1734 
C 339 576 902 -83 1773 -83 
z
M 1901 410 
C 1293 410 941 902 941 1741 
C 941 2534 1389 3072 1946 3072 
C 2234 3072 2502 2970 2790 2707 
L 2790 883 
C 2502 563 2221 410 1901 410 
z
" transform="scale(0.015625)"/>
     <path id="NotoSansCJKjp-Regular-65" d="M 1997 -83 
C 2464 -83 2835 70 3136 269 
L 2931 659 
C 2669 486 2400 384 2061 384 
C 1402 384 947 858 909 1600 
L 3251 1600 
C 3264 1690 3277 1805 3277 1933 
C 3277 2925 2778 3565 1888 3565 
C 1094 3565 333 2867 333 1734 
C 333 589 1069 -83 1997 -83 
z
M 902 2016 
C 973 2707 1408 3098 1901 3098 
C 2445 3098 2765 2720 2765 2016 
L 902 2016 
z
" transform="scale(0.015625)"/>
     <path id="NotoSansCJKjp-Regular-2d" d="M 294 1568 
L 1933 1568 
L 1933 2016 
L 294 2016 
L 294 1568 
z
" transform="scale(0.015625)"/>
     <path id="NotoSansCJKjp-Regular-68" d="M 589 0 
L 1178 0 
L 1178 2522 
C 1523 2874 1766 3053 2125 3053 
C 2586 3053 2784 2778 2784 2125 
L 2784 0 
L 3366 0 
L 3366 2202 
C 3366 3085 3034 3565 2304 3565 
C 1830 3565 1472 3302 1152 2982 
L 1178 3699 
L 1178 5094 
L 589 5094 
L 589 0 
z
" transform="scale(0.015625)"/>
     <path id="NotoSansCJKjp-Regular-69" d="M 589 0 
L 1178 0 
L 1178 3475 
L 589 3475 
L 589 0 
z
M 883 4192 
C 1114 4192 1274 4346 1274 4582 
C 1274 4806 1114 4960 883 4960 
C 653 4960 499 4806 499 4582 
C 499 4346 653 4192 883 4192 
z
" transform="scale(0.015625)"/>
     <path id="NotoSansCJKjp-Regular-6b" d="M 589 0 
L 1165 0 
L 1165 915 
L 1818 1677 
L 2835 0 
L 3469 0 
L 2157 2074 
L 3315 3475 
L 2662 3475 
L 1190 1645 
L 1165 1645 
L 1165 5094 
L 589 5094 
L 589 0 
z
" transform="scale(0.015625)"/>
     <path id="NotoSansCJKjp-Regular-ac00" d="M 4237 5293 
L 4237 -493 
L 4768 -493 
L 4768 2502 
L 5690 2502 
L 5690 2944 
L 4768 2944 
L 4768 5293 
L 4237 5293 
z
M 621 4672 
L 621 4230 
L 2746 4230 
C 2624 2861 1824 1754 352 1011 
L 646 602 
C 2522 1536 3277 3027 3277 4672 
L 621 4672 
z
" transform="scale(0.015625)"/>
     <path id="NotoSansCJKjp-Regular-ce58" d="M 4525 5293 
L 4525 -499 
L 5056 -499 
L 5056 5293 
L 4525 5293 
z
M 1920 5184 
L 1920 4288 
L 582 4288 
L 582 3859 
L 1926 3859 
L 1926 3418 
C 1926 2406 1286 1427 429 1030 
L 723 621 
C 1395 934 1939 1600 2195 2406 
C 2464 1645 3014 1024 3674 723 
L 3968 1133 
C 3104 1510 2451 2451 2451 3418 
L 2451 3859 
L 3770 3859 
L 3770 4288 
L 2451 4288 
L 2451 5184 
L 1920 5184 
z
" transform="scale(0.015625)"/>
     <path id="NotoSansCJKjp-Regular-37" d="M 1267 0 
L 1875 0 
C 1952 1837 2150 2931 3251 4339 
L 3251 4691 
L 314 4691 
L 314 4192 
L 2592 4192 
C 1670 2912 1350 1779 1267 0 
z
" transform="scale(0.015625)"/>
     <path id="NotoSansCJKjp-Regular-b7" d="M 1766 1875 
C 1997 1875 2195 2067 2195 2323 
C 2195 2592 1997 2778 1766 2778 
C 1536 2778 1350 2592 1350 2323 
C 1350 2067 1536 1875 1766 1875 
z
" transform="scale(0.015625)"/>
     <path id="NotoSansCJKjp-Regular-ce78" d="M 678 4851 
L 678 4416 
L 2694 4416 
C 2675 4166 2624 3936 2534 3712 
L 390 3616 
L 480 3181 
L 2330 3322 
C 1971 2778 1357 2336 422 2022 
L 640 1600 
C 2470 2221 3251 3354 3251 4851 
L 678 4851 
z
M 4275 5293 
L 4275 973 
L 4813 973 
L 4813 3053 
L 5664 3053 
L 5664 3494 
L 4813 3494 
L 4813 5293 
L 4275 5293 
z
M 1203 1389 
L 1203 -371 
L 5062 -371 
L 5062 64 
L 1734 64 
L 1734 1389 
L 1203 1389 
z
" transform="scale(0.015625)"/>
     <path id="NotoSansCJKjp-Regular-3d" d="M 243 2912 
L 3315 2912 
L 3315 3347 
L 243 3347 
L 243 2912 
z
M 243 1376 
L 3315 1376 
L 3315 1811 
L 243 1811 
L 243 1376 
z
" transform="scale(0.015625)"/>
     <path id="NotoSansCJKjp-Regular-c2dc" d="M 4525 5293 
L 4525 -506 
L 5056 -506 
L 5056 5293 
L 4525 5293 
z
M 1843 4794 
L 1843 3757 
C 1843 2656 1152 1549 288 1146 
L 614 704 
C 1293 1043 1850 1773 2118 2643 
C 2387 1818 2944 1139 3597 819 
L 3917 1242 
C 3066 1632 2374 2701 2374 3757 
L 2374 4794 
L 1843 4794 
z
" transform="scale(0.015625)"/>
     <path id="NotoSansCJKjp-Regular-b098" d="M 4237 5293 
L 4237 -493 
L 4768 -493 
L 4768 2541 
L 5690 2541 
L 5690 2982 
L 4768 2982 
L 4768 5293 
L 4237 5293 
z
M 550 1414 
L 550 973 
L 1011 973 
C 1888 973 2778 1030 3763 1229 
L 3699 1677 
C 2765 1485 1907 1421 1075 1414 
L 1075 4723 
L 550 4723 
L 550 1414 
z
" transform="scale(0.015625)"/>
     <path id="NotoSansCJKjp-Regular-b9ac" d="M 4538 5293 
L 4538 -506 
L 5062 -506 
L 5062 5293 
L 4538 5293 
z
M 640 4755 
L 640 4320 
L 2778 4320 
L 2778 3117 
L 653 3117 
L 653 896 
L 1133 896 
C 2131 896 3002 934 4045 1107 
L 3994 1542 
C 2982 1382 2138 1338 1190 1338 
L 1190 2688 
L 3315 2688 
L 3315 4755 
L 640 4755 
z
" transform="scale(0.015625)"/>
     <path id="NotoSansCJKjp-Regular-c624" d="M 2931 4486 
C 3853 4486 4525 4051 4525 3398 
C 4525 2733 3853 2304 2931 2304 
C 2016 2304 1344 2733 1344 3398 
C 1344 4051 2016 4486 2931 4486 
z
M 320 685 
L 320 243 
L 5568 243 
L 5568 685 
L 3194 685 
L 3194 1888 
C 4275 1971 5037 2541 5037 3398 
C 5037 4314 4154 4915 2931 4915 
C 1715 4915 832 4314 832 3398 
C 832 2541 1587 1971 2669 1888 
L 2669 685 
L 320 685 
z
" transform="scale(0.015625)"/>
     <path id="NotoSansCJKjp-Regular-d7" d="M 4954 346 
L 5261 653 
L 3514 2406 
L 5261 4160 
L 4954 4467 
L 3200 2714 
L 1453 4467 
L 1139 4154 
L 2893 2406 
L 1139 653 
L 1453 346 
L 3200 2099 
L 4954 346 
z
" transform="scale(0.015625)"/>
     <path id="NotoSansCJKjp-Regular-bb38" d="M 992 5018 
L 992 2989 
L 4877 2989 
L 4877 5018 
L 992 5018 
z
M 4358 4595 
L 4358 3411 
L 1510 3411 
L 1510 4595 
L 4358 4595 
z
M 314 2336 
L 314 1901 
L 2714 1901 
L 2714 730 
L 3238 730 
L 3238 1901 
L 5562 1901 
L 5562 2336 
L 314 2336 
z
M 979 1286 
L 979 -371 
L 4979 -371 
L 4979 64 
L 1510 64 
L 1510 1286 
L 979 1286 
z
" transform="scale(0.015625)"/>
     <path id="NotoSansCJKjp-Regular-c7a5" d="M 2970 1645 
C 1786 1645 1062 1254 1062 582 
C 1062 -90 1786 -486 2970 -486 
C 4147 -486 4864 -90 4864 582 
C 4864 1254 4147 1645 2970 1645 
z
M 2970 1222 
C 3827 1222 4346 986 4346 582 
C 4346 173 3827 -64 2970 -64 
C 2112 -64 1587 173 1587 582 
C 1587 986 2112 1222 2970 1222 
z
M 454 4864 
L 454 4429 
L 1747 4429 
L 1747 4198 
C 1747 3373 1165 2624 294 2323 
L 563 1901 
C 1254 2150 1779 2662 2022 3322 
C 2272 2746 2765 2298 3424 2074 
L 3674 2490 
C 2829 2771 2278 3450 2278 4205 
L 2278 4429 
L 3552 4429 
L 3552 4864 
L 454 4864 
z
M 4282 5293 
L 4282 1805 
L 4813 1805 
L 4813 3379 
L 5664 3379 
L 5664 3821 
L 4813 3821 
L 4813 5293 
L 4282 5293 
z
" transform="scale(0.015625)"/>
     <path id="NotoSansCJKjp-Regular-acb9" d="M 1338 1888 
L 1338 -422 
L 5075 -422 
L 5075 1888 
L 4550 1888 
L 4550 1165 
L 1869 1165 
L 1869 1888 
L 1338 1888 
z
M 1869 742 
L 4550 742 
L 4550 6 
L 1869 6 
L 1869 742 
z
M 4550 5293 
L 4550 4384 
L 3251 4384 
C 3283 4557 3302 4742 3302 4934 
L 691 4934 
L 691 4499 
L 2726 4499 
C 2630 3552 1811 2829 397 2477 
L 602 2048 
C 1882 2381 2771 3027 3123 3949 
L 4550 3949 
L 4550 3206 
L 3053 3206 
L 3053 2765 
L 4550 2765 
L 4550 2176 
L 5075 2176 
L 5075 5293 
L 4550 5293 
z
" transform="scale(0.015625)"/>
     <path id="NotoSansCJKjp-Regular-b294" d="M 314 2342 
L 314 1914 
L 5562 1914 
L 5562 2342 
L 314 2342 
z
M 1024 5082 
L 1024 3123 
L 4960 3123 
L 4960 3552 
L 1549 3552 
L 1549 5082 
L 1024 5082 
z
M 986 1331 
L 986 -358 
L 4992 -358 
L 4992 77 
L 1517 77 
L 1517 1331 
L 986 1331 
z
" transform="scale(0.015625)"/>
     <path id="NotoSansCJKjp-Regular-c815" d="M 3174 1664 
C 1978 1664 1248 1267 1248 582 
C 1248 -96 1978 -493 3174 -493 
C 4371 -493 5101 -96 5101 582 
C 5101 1267 4371 1664 3174 1664 
z
M 3174 1248 
C 4045 1248 4576 1005 4576 582 
C 4576 166 4045 -77 3174 -77 
C 2304 -77 1773 166 1773 582 
C 1773 1005 2304 1248 3174 1248 
z
M 4550 5293 
L 4550 3789 
L 3411 3789 
L 3411 3347 
L 4550 3347 
L 4550 1843 
L 5082 1843 
L 5082 5293 
L 4550 5293 
z
M 506 4870 
L 506 4435 
L 1792 4435 
L 1792 4237 
C 1792 3411 1203 2630 339 2317 
L 614 1894 
C 1299 2157 1824 2688 2074 3360 
C 2323 2771 2816 2291 3462 2054 
L 3731 2477 
C 2893 2771 2330 3494 2330 4243 
L 2330 4435 
L 3597 4435 
L 3597 4870 
L 506 4870 
z
" transform="scale(0.015625)"/>
     <path id="NotoSansCJKjp-Regular-b3c4" d="M 986 4826 
L 986 2157 
L 2669 2157 
L 2669 672 
L 320 672 
L 320 230 
L 5568 230 
L 5568 672 
L 3194 672 
L 3194 2157 
L 4960 2157 
L 4960 2586 
L 1517 2586 
L 1517 4390 
L 4902 4390 
L 4902 4826 
L 986 4826 
z
" transform="scale(0.015625)"/>
     <path id="NotoSansCJKjp-Regular-b2e8" d="M 4282 5293 
L 4282 1101 
L 4813 1101 
L 4813 3136 
L 5670 3136 
L 5670 3578 
L 4813 3578 
L 4813 5293 
L 4282 5293 
z
M 589 4794 
L 589 2125 
L 1037 2125 
C 2246 2125 2931 2163 3731 2323 
L 3667 2758 
C 2912 2605 2259 2566 1114 2566 
L 1114 4358 
L 3142 4358 
L 3142 4794 
L 589 4794 
z
M 1210 1523 
L 1210 -371 
L 5069 -371 
L 5069 64 
L 1734 64 
L 1734 1523 
L 1210 1523 
z
" transform="scale(0.015625)"/>
     <path id="NotoSansCJKjp-Regular-c5b4" d="M 1862 4371 
C 2419 4371 2803 3763 2803 2829 
C 2803 1888 2419 1280 1862 1280 
C 1312 1280 928 1888 928 2829 
C 928 3763 1312 4371 1862 4371 
z
M 4557 5293 
L 4557 3085 
L 3296 3085 
C 3219 4166 2650 4845 1862 4845 
C 1018 4845 422 4058 422 2829 
C 422 1594 1018 806 1862 806 
C 2669 806 3245 1523 3296 2656 
L 4557 2656 
L 4557 -506 
L 5082 -506 
L 5082 5293 
L 4557 5293 
z
" transform="scale(0.015625)"/>
     <path id="NotoSansCJKjp-Regular-cc3e" d="M 1766 5318 
L 1766 4621 
L 480 4621 
L 480 4192 
L 1766 4192 
L 1766 4090 
C 1766 3334 1178 2669 320 2413 
L 576 1990 
C 1261 2214 1786 2675 2035 3277 
C 2285 2733 2797 2310 3462 2106 
L 3706 2515 
C 2854 2765 2291 3398 2291 4090 
L 2291 4192 
L 3571 4192 
L 3571 4621 
L 2298 4621 
L 2298 5318 
L 1766 5318 
z
M 4282 5293 
L 4282 1933 
L 4813 1933 
L 4813 3424 
L 5664 3424 
L 5664 3866 
L 4813 3866 
L 4813 5293 
L 4282 5293 
z
M 1120 1619 
L 1120 1190 
L 2733 1190 
C 2643 582 1830 83 896 -64 
L 1094 -474 
C 1939 -333 2688 77 3014 653 
C 3341 83 4090 -339 4934 -480 
L 5133 -70 
C 4205 83 3386 595 3296 1190 
L 4909 1190 
L 4909 1619 
L 1120 1619 
z
" transform="scale(0.015625)"/>
     <path id="NotoSansCJKjp-Regular-ae30" d="M 4538 5293 
L 4538 -499 
L 5069 -499 
L 5069 5293 
L 4538 5293 
z
M 659 4666 
L 659 4237 
L 2829 4237 
C 2720 2854 1939 1754 390 1011 
L 672 582 
C 2611 1523 3366 2995 3366 4666 
L 659 4666 
z
" transform="scale(0.015625)"/>
     <path id="NotoSansCJKjp-Regular-cc44" d="M 1504 5082 
L 1504 4218 
L 410 4218 
L 410 3776 
L 1504 3776 
L 1504 3514 
C 1504 2566 1050 1562 269 1107 
L 582 704 
C 1152 1043 1562 1683 1760 2413 
C 1971 1728 2381 1139 2944 832 
L 3251 1229 
C 2470 1651 2010 2598 2010 3514 
L 2010 3776 
L 3098 3776 
L 3098 4218 
L 2010 4218 
L 2010 5082 
L 1504 5082 
z
M 3482 5171 
L 3482 -205 
L 3987 -205 
L 3987 2509 
L 4742 2509 
L 4742 -499 
L 5254 -499 
L 5254 5293 
L 4742 5293 
L 4742 2957 
L 3987 2957 
L 3987 5171 
L 3482 5171 
z
" transform="scale(0.015625)"/>
     <path id="NotoSansCJKjp-Regular-c810" d="M 1325 1619 
L 1325 -422 
L 5082 -422 
L 5082 1619 
L 1325 1619 
z
M 4563 1197 
L 4563 13 
L 1850 13 
L 1850 1197 
L 4563 1197 
z
M 4550 5293 
L 4550 3846 
L 3405 3846 
L 3405 3405 
L 4550 3405 
L 4550 1907 
L 5082 1907 
L 5082 5293 
L 4550 5293 
z
M 506 4922 
L 506 4486 
L 1792 4486 
L 1792 4275 
C 1792 3456 1197 2682 339 2381 
L 614 1958 
C 1299 2208 1824 2739 2067 3398 
C 2317 2803 2816 2323 3462 2086 
L 3731 2509 
C 2893 2810 2330 3533 2330 4275 
L 2330 4486 
L 3597 4486 
L 3597 4922 
L 506 4922 
z
" transform="scale(0.015625)"/>
     <path id="NotoSansCJKjp-Regular-d655" d="M 998 1114 
L 998 691 
L 4275 691 
L 4275 -499 
L 4806 -499 
L 4806 1114 
L 998 1114 
z
M 2093 3776 
C 2611 3776 2938 3597 2938 3290 
C 2938 2995 2611 2797 2093 2797 
C 1574 2797 1248 2995 1248 3290 
C 1248 3597 1574 3776 2093 3776 
z
M 2093 4147 
C 1280 4147 742 3821 742 3290 
C 742 2816 1171 2509 1837 2445 
L 1837 2022 
C 1280 2003 749 2003 288 2003 
L 352 1574 
C 1363 1574 2733 1581 3968 1805 
L 3930 2182 
C 3430 2112 2893 2067 2362 2042 
L 2362 2445 
C 3021 2509 3443 2822 3443 3290 
C 3443 3821 2906 4147 2093 4147 
z
M 4275 5286 
L 4275 1408 
L 4806 1408 
L 4806 3098 
L 5651 3098 
L 5651 3539 
L 4806 3539 
L 4806 5286 
L 4275 5286 
z
M 1837 5338 
L 1837 4768 
L 435 4768 
L 435 4365 
L 3757 4365 
L 3757 4768 
L 2362 4768 
L 2362 5338 
L 1837 5338 
z
" transform="scale(0.015625)"/>
     <path id="NotoSansCJKjp-Regular-c544" d="M 1856 4845 
C 1005 4845 403 4058 403 2829 
C 403 1594 1005 806 1856 806 
C 2707 806 3309 1594 3309 2829 
C 3309 4058 2707 4845 1856 4845 
z
M 1856 4371 
C 2419 4371 2803 3763 2803 2829 
C 2803 1888 2419 1280 1856 1280 
C 1299 1280 909 1888 909 2829 
C 909 3763 1299 4371 1856 4371 
z
M 4237 5293 
L 4237 -499 
L 4768 -499 
L 4768 2534 
L 5715 2534 
L 5715 2982 
L 4768 2982 
L 4768 5293 
L 4237 5293 
z
" transform="scale(0.015625)"/>
     <path id="NotoSansCJKjp-Regular-b2d8" d="M 4531 5293 
L 4531 2016 
L 5056 2016 
L 5056 5293 
L 4531 5293 
z
M 1325 1734 
L 1325 -416 
L 5056 -416 
L 5056 1734 
L 1325 1734 
z
M 4538 1312 
L 4538 13 
L 1843 13 
L 1843 1312 
L 4538 1312 
z
M 678 2893 
L 678 2445 
L 1146 2445 
C 2144 2445 3014 2515 3974 2714 
L 3898 3155 
C 2995 2963 2157 2893 1210 2893 
L 1210 4954 
L 678 4954 
L 678 2893 
z
" transform="scale(0.015625)"/>
     <path id="NotoSansCJKjp-Regular-28" d="M 1530 -1254 
L 1888 -1094 
C 1338 -186 1075 902 1075 1990 
C 1075 3072 1338 4154 1888 5069 
L 1530 5235 
C 941 4275 589 3245 589 1990 
C 589 730 941 -301 1530 -1254 
z
" transform="scale(0.015625)"/>
     <path id="NotoSansCJKjp-Regular-cc38" d="M 1178 1594 
L 1178 -422 
L 4813 -422 
L 4813 1594 
L 1178 1594 
z
M 4288 1171 
L 4288 13 
L 1696 13 
L 1696 1171 
L 4288 1171 
z
M 1766 5318 
L 1766 4614 
L 480 4614 
L 480 4186 
L 1766 4186 
L 1766 4090 
C 1766 3328 1178 2656 320 2394 
L 576 1978 
C 1261 2202 1786 2662 2035 3270 
C 2285 2720 2790 2291 3456 2086 
L 3706 2502 
C 2854 2758 2291 3392 2291 4090 
L 2291 4186 
L 3571 4186 
L 3571 4614 
L 2298 4614 
L 2298 5318 
L 1766 5318 
z
M 4282 5293 
L 4282 1869 
L 4813 1869 
L 4813 3386 
L 5664 3386 
L 5664 3827 
L 4813 3827 
L 4813 5293 
L 4282 5293 
z
" transform="scale(0.015625)"/>
     <path id="NotoSansCJKjp-Regular-ace0" d="M 877 4710 
L 877 4275 
L 4397 4275 
L 4397 4141 
C 4397 3443 4397 2630 4179 1523 
L 4717 1459 
C 4928 2630 4928 3424 4928 4141 
L 4928 4710 
L 877 4710 
z
M 2355 2822 
L 2355 755 
L 320 755 
L 320 314 
L 5549 314 
L 5549 755 
L 2880 755 
L 2880 2822 
L 2355 2822 
z
" transform="scale(0.015625)"/>
     <path id="NotoSansCJKjp-Regular-c218" d="M 2662 5088 
L 2662 4762 
C 2662 3942 1645 3245 589 3091 
L 800 2662 
C 1702 2810 2573 3309 2944 4013 
C 3315 3309 4179 2810 5082 2662 
L 5293 3091 
C 4243 3245 3213 3955 3213 4762 
L 3213 5088 
L 2662 5088 
z
M 320 2035 
L 320 1594 
L 2662 1594 
L 2662 -499 
L 3187 -499 
L 3187 1594 
L 5549 1594 
L 5549 2035 
L 320 2035 
z
" transform="scale(0.015625)"/>
     <path id="NotoSansCJKjp-Regular-29" d="M 634 -1254 
C 1222 -301 1574 730 1574 1990 
C 1574 3245 1222 4275 634 5235 
L 269 5069 
C 819 4154 1094 3072 1094 1990 
C 1094 902 819 -186 269 -1094 
L 634 -1254 
z
" transform="scale(0.015625)"/>
    </defs>
    <use xlink:href="#NotoSansCJKjp-Regular-63"/>
    <use xlink:href="#NotoSansCJKjp-Regular-6c" transform="translate(50.999985 0)"/>
    <use xlink:href="#NotoSansCJKjp-Regular-61" transform="translate(79.399979 0)"/>
    <use xlink:href="#NotoSansCJKjp-Regular-75" transform="translate(135.699966 0)"/>
    <use xlink:href="#NotoSansCJKjp-Regular-64" transform="translate(196.399963 0)"/>
    <use xlink:href="#NotoSansCJKjp-Regular-65" transform="translate(258.399948 0)"/>
    <use xlink:href="#NotoSansCJKjp-Regular-2d" transform="translate(313.799942 0)"/>
    <use xlink:href="#NotoSansCJKjp-Regular-68" transform="translate(348.499939 0)"/>
    <use xlink:href="#NotoSansCJKjp-Regular-61" transform="translate(409.199936 0)"/>
    <use xlink:href="#NotoSansCJKjp-Regular-69" transform="translate(465.499924 0)"/>
    <use xlink:href="#NotoSansCJKjp-Regular-6b" transform="translate(492.999908 0)"/>
    <use xlink:href="#NotoSansCJKjp-Regular-75" transform="translate(548.199905 0)"/>
    <use xlink:href="#NotoSansCJKjp-Regular-20" transform="translate(608.899902 0)"/>
    <use xlink:href="#NotoSansCJKjp-Regular-ac00" transform="translate(631.299896 0)"/>
    <use xlink:href="#NotoSansCJKjp-Regular-ce58" transform="translate(723.299881 0)"/>
    <use xlink:href="#NotoSansCJKjp-Regular-d310" transform="translate(815.299866 0)"/>
    <use xlink:href="#NotoSansCJKjp-Regular-20" transform="translate(907.29985 0)"/>
    <use xlink:href="#NotoSansCJKjp-Regular-37" transform="translate(929.699844 0)"/>
    <use xlink:href="#NotoSansCJKjp-Regular-32" transform="translate(985.199829 0)"/>
    <use xlink:href="#NotoSansCJKjp-Regular-30" transform="translate(1040.699814 0)"/>
    <use xlink:href="#NotoSansCJKjp-Regular-d310" transform="translate(1096.199799 0)"/>
    <use xlink:href="#NotoSansCJKjp-Regular-20" transform="translate(1188.199783 0)"/>
    <use xlink:href="#NotoSansCJKjp-Regular-b7" transform="translate(1210.599777 0)"/>
    <use xlink:href="#NotoSansCJKjp-Regular-20" transform="translate(1266.699768 0)"/>
    <use xlink:href="#NotoSansCJKjp-Regular-ce78" transform="translate(1289.099762 0)"/>
    <use xlink:href="#NotoSansCJKjp-Regular-20" transform="translate(1381.099747 0)"/>
    <use xlink:href="#NotoSansCJKjp-Regular-3d" transform="translate(1403.499741 0)"/>
    <use xlink:href="#NotoSansCJKjp-Regular-20" transform="translate(1458.999725 0)"/>
    <use xlink:href="#NotoSansCJKjp-Regular-c2dc" transform="translate(1481.399719 0)"/>
    <use xlink:href="#NotoSansCJKjp-Regular-b098" transform="translate(1573.399704 0)"/>
    <use xlink:href="#NotoSansCJKjp-Regular-b9ac" transform="translate(1665.399689 0)"/>
    <use xlink:href="#NotoSansCJKjp-Regular-c624" transform="translate(1757.399673 0)"/>
    <use xlink:href="#NotoSansCJKjp-Regular-20" transform="translate(1849.399658 0)"/>
    <use xlink:href="#NotoSansCJKjp-Regular-d7" transform="translate(1871.799652 0)"/>
    <use xlink:href="#NotoSansCJKjp-Regular-20" transform="translate(1971.799637 0)"/>
    <use xlink:href="#NotoSansCJKjp-Regular-ac00" transform="translate(1994.199631 0)"/>
    <use xlink:href="#NotoSansCJKjp-Regular-ce58" transform="translate(2086.199615 0)"/>
    <use xlink:href="#NotoSansCJKjp-Regular-20" transform="translate(2178.1996 0)"/>
    <use xlink:href="#NotoSansCJKjp-Regular-bb38" transform="translate(2200.599594 0)"/>
    <use xlink:href="#NotoSansCJKjp-Regular-c7a5" transform="translate(2292.599579 0)"/>
    <use xlink:href="#NotoSansCJKjp-Regular-20" transform="translate(2384.599564 0)"/>
    <use xlink:href="#NotoSansCJKjp-Regular-b7" transform="translate(2406.999557 0)"/>
    <use xlink:href="#NotoSansCJKjp-Regular-20" transform="translate(2463.099548 0)"/>
    <use xlink:href="#NotoSansCJKjp-Regular-acb9" transform="translate(2485.499542 0)"/>
    <use xlink:href="#NotoSansCJKjp-Regular-ce58" transform="translate(2577.499527 0)"/>
    <use xlink:href="#NotoSansCJKjp-Regular-b294" transform="translate(2669.499512 0)"/>
    <use xlink:href="#NotoSansCJKjp-Regular-20" transform="translate(2761.499496 0)"/>
    <use xlink:href="#NotoSansCJKjp-Regular-c815" transform="translate(2783.89949 0)"/>
    <use xlink:href="#NotoSansCJKjp-Regular-b3c4" transform="translate(2875.899475 0)"/>
    <use xlink:href="#NotoSansCJKjp-Regular-b294" transform="translate(2967.89946 0)"/>
    <use xlink:href="#NotoSansCJKjp-Regular-20" transform="translate(3059.899445 0)"/>
    <use xlink:href="#NotoSansCJKjp-Regular-b2e8" transform="translate(3082.299438 0)"/>
    <use xlink:href="#NotoSansCJKjp-Regular-c5b4" transform="translate(3174.299423 0)"/>
    <use xlink:href="#NotoSansCJKjp-Regular-20" transform="translate(3266.299408 0)"/>
    <use xlink:href="#NotoSansCJKjp-Regular-cc3e" transform="translate(3288.699402 0)"/>
    <use xlink:href="#NotoSansCJKjp-Regular-ae30" transform="translate(3380.699387 0)"/>
    <use xlink:href="#NotoSansCJKjp-Regular-20" transform="translate(3472.699371 0)"/>
    <use xlink:href="#NotoSansCJKjp-Regular-cc44" transform="translate(3495.099365 0)"/>
    <use xlink:href="#NotoSansCJKjp-Regular-c810" transform="translate(3587.09935 0)"/>
    <use xlink:href="#NotoSansCJKjp-Regular-20" transform="translate(3679.099335 0)"/>
    <use xlink:href="#NotoSansCJKjp-Regular-b7" transform="translate(3701.499329 0)"/>
    <use xlink:href="#NotoSansCJKjp-Regular-20" transform="translate(3757.599319 0)"/>
    <use xlink:href="#NotoSansCJKjp-Regular-d655" transform="translate(3779.999313 0)"/>
    <use xlink:href="#NotoSansCJKjp-Regular-c815" transform="translate(3871.999298 0)"/>
    <use xlink:href="#NotoSansCJKjp-Regular-20" transform="translate(3963.999283 0)"/>
    <use xlink:href="#NotoSansCJKjp-Regular-c544" transform="translate(3986.399277 0)"/>
    <use xlink:href="#NotoSansCJKjp-Regular-b2d8" transform="translate(4078.399261 0)"/>
    <use xlink:href="#NotoSansCJKjp-Regular-28" transform="translate(4170.399246 0)"/>
    <use xlink:href="#NotoSansCJKjp-Regular-cc38" transform="translate(4204.199234 0)"/>
    <use xlink:href="#NotoSansCJKjp-Regular-ace0" transform="translate(4296.199219 0)"/>
    <use xlink:href="#NotoSansCJKjp-Regular-20" transform="translate(4388.199203 0)"/>
    <use xlink:href="#NotoSansCJKjp-Regular-c218" transform="translate(4410.599197 0)"/>
    <use xlink:href="#NotoSansCJKjp-Regular-ce58" transform="translate(4502.599182 0)"/>
    <use xlink:href="#NotoSansCJKjp-Regular-29" transform="translate(4594.599167 0)"/>
   </g>
  </g>
 </g>
 <defs>
  <clipPath id="p43de144b40">
   <rect x="71.022984" y="44.6925" width="341.625596" height="234.3355"/>
  </clipPath>
  <clipPath id="pe985e39f28">
   <rect x="446.41108" y="44.6925" width="262.78892" height="234.3355"/>
  </clipPath>
 </defs>
</svg>
