<svg xmlns="http://www.w3.org/2000/svg" width="1500" height="560" viewBox="0 0 1500 560">
  <rect width="1500" height="560" fill="white"/><defs><marker id="a" markerWidth="10" markerHeight="10" refX="9" refY="3" orient="auto"><path d="M0,0 L0,6 L9,3z" fill="#898882"/></marker></defs>
  <g font-family="'Malgun Gothic','Noto Sans KR',sans-serif"><text x="50" y="62" font-size="32" font-weight="700" fill="#202020">같은 조건에서 토론 실행기만 바꿔 비교</text>
  <text x="50" y="100" font-size="19" fill="#77756f">3개 이슈 · 동일 팩트와 배분 · 동일 모델 설정</text>
  <rect x="55" y="190" width="220" height="210" rx="16" fill="#f3f2ef" stroke="#c5c3ba" stroke-width="3"/><text x="165" y="267" text-anchor="middle" dominant-baseline="middle" font-size="21" fill="#202020">같은 입력</text><text x="165" y="295" text-anchor="middle" dominant-baseline="middle" font-size="21" fill="#202020">이슈 3개</text><text x="165" y="323" text-anchor="middle" dominant-baseline="middle" font-size="21" fill="#202020">팩트 · 배분 고정</text>
  <rect x="460" y="145" width="280" height="120" rx="16" fill="#fbfbfa" stroke="#2a78d6" stroke-width="3"/><text x="600" y="191" text-anchor="middle" dominant-baseline="middle" font-size="21" fill="#202020">저자 판</text><text x="600" y="219" text-anchor="middle" dominant-baseline="middle" font-size="21" fill="#202020">DelibTrace</text><rect x="460" y="335" width="280" height="120" rx="16" fill="#fbfbfa" stroke="#eb6834" stroke-width="3"/><text x="600" y="381" text-anchor="middle" dominant-baseline="middle" font-size="21" fill="#202020">우리 판</text><text x="600" y="409" text-anchor="middle" dominant-baseline="middle" font-size="21" fill="#202020">debate_engine</text>
  <rect x="925" y="190" width="220" height="210" rx="16" fill="#f3f2ef" stroke="#c5c3ba" stroke-width="3"/><text x="1035" y="267" text-anchor="middle" dominant-baseline="middle" font-size="21" fill="#202020">같은 판정</text><text x="1035" y="295" text-anchor="middle" dominant-baseline="middle" font-size="21" fill="#202020">팩트 언급 여부</text><text x="1035" y="323" text-anchor="middle" dominant-baseline="middle" font-size="21" fill="#202020">gpt-5</text>
  <rect x="1270" y="215" width="165" height="160" rx="16" fill="#f8f7f3" stroke="#c5c3ba" stroke-width="3"/><text x="1352.5" y="267" text-anchor="middle" dominant-baseline="middle" font-size="21" fill="#202020">비교</text><text x="1352.5" y="295" text-anchor="middle" dominant-baseline="middle" font-size="21" fill="#202020">FAR</text><text x="1352.5" y="323" text-anchor="middle" dominant-baseline="middle" font-size="21" fill="#202020">셀 그리드</text>
  <g stroke="#898882" stroke-width="4" fill="none" marker-end="url(#a)"><path d="M275 295 L445 210"/><path d="M275 295 L445 390"/><path d="M740 205 L910 275"/><path d="M740 395 L910 320"/><path d="M1145 295 L1255 295"/></g>
  <text x="600" y="510" text-anchor="middle" font-size="20" fill="#77756f">바뀌는 것은 실행기 하나뿐</text></g></svg>